<?xml version="1.0" standalone="no"?>
 <!DOCTYPE svg PUBLIC "-//W3C//DTD SVG 1.1//EN" 
 "http://www.w3.org/Graphics/SVG/1.1/DTD/svg11.dtd"> 
<svg xmlns="http://www.w3.org/2000/svg" version="1.1" 
    width="4.50088cm" height="5.91312cm" viewBox="0 0 17720 23280 ">
<title>SVG Picture created as ESP07-Breakout-brd.svg date 2016/01/05 17:41:27 </title>
  <desc>Picture generated by PCBNEW </desc>
<g style="fill:#000000; fill-opacity:1;stroke:#000000; stroke-opacity:1;
stroke-linecap:round; stroke-linejoin:round; "
 transform="translate(0 0) scale(1 1)">
</g>
<g style="fill:#000000; fill-opacity:0.0; 
stroke:#000000; stroke-width:-0.000393701; stroke-opacity:1; 
stroke-linecap:round; stroke-linejoin:round;">
</g>
<g style="fill:#000000; fill-opacity:0.0; 
stroke:#000000; stroke-width:118.11; stroke-opacity:1; 
stroke-linecap:round; stroke-linejoin:round;">
<path d="M15944 14330
L15747 14330
" />
<path d="M15662 14639
L15944 14639
L15944 14049
L15662 14049
" />
<path d="M15437 14611
L15353 14639
L15212 14639
L15156 14611
L15128 14583
L15100 14527
L15100 14470
L15128 14414
L15156 14386
L15212 14358
L15325 14330
L15381 14302
L15409 14274
L15437 14217
L15437 14161
L15409 14105
L15381 14077
L15325 14049
L15184 14049
L15100 14077
" />
<path d="M14847 14639
L14847 14049
L14622 14049
L14566 14077
L14538 14105
L14509 14161
L14509 14245
L14538 14302
L14566 14330
L14622 14358
L14847 14358
" />
<path d="M14144 14049
L14088 14049
L14031 14077
L14003 14105
L13975 14161
L13947 14274
L13947 14414
L13975 14527
L14003 14583
L14031 14611
L14088 14639
L14144 14639
L14200 14611
L14228 14583
L14256 14527
L14284 14414
L14284 14274
L14256 14161
L14228 14105
L14200 14077
L14144 14049
" />
<path d="M13750 14049
L13356 14049
L13610 14639
" />
<path d="M13131 14414
L12682 14414
" />
<path d="M12203 14330
L12119 14358
L12091 14386
L12063 14442
L12063 14527
L12091 14583
L12119 14611
L12175 14639
L12400 14639
L12400 14049
L12203 14049
L12147 14077
L12119 14105
L12091 14161
L12091 14217
L12119 14274
L12147 14302
L12203 14330
L12400 14330
" />
<path d="M11810 14639
L11810 14245
" />
<path d="M11810 14358
L11782 14302
L11754 14274
L11697 14245
L11641 14245
" />
<path d="M11219 14611
L11275 14639
L11388 14639
L11444 14611
L11472 14555
L11472 14330
L11444 14274
L11388 14245
L11275 14245
L11219 14274
L11191 14330
L11191 14386
L11472 14442
" />
<path d="M10685 14639
L10685 14330
L10713 14274
L10769 14245
L10882 14245
L10938 14274
" />
<path d="M10685 14611
L10741 14639
L10882 14639
L10938 14611
L10966 14555
L10966 14498
L10938 14442
L10882 14414
L10741 14414
L10685 14386
" />
<path d="M10404 14639
L10404 14049
" />
<path d="M10347 14414
L10179 14639
" />
<path d="M10179 14245
L10404 14470
" />
<path d="M9841 14639
L9897 14611
L9926 14583
L9954 14527
L9954 14358
L9926 14302
L9897 14274
L9841 14245
L9757 14245
L9701 14274
L9673 14302
L9644 14358
L9644 14527
L9673 14583
L9701 14611
L9757 14639
L9841 14639
" />
<path d="M9138 14245
L9138 14639
" />
<path d="M9391 14245
L9391 14555
L9363 14611
L9307 14639
L9223 14639
L9166 14611
L9138 14583
" />
<path d="M8941 14245
L8716 14245
" />
<path d="M8857 14049
L8857 14555
L8829 14611
L8773 14639
L8716 14639
" />
</g>
<g style="fill:#000000; fill-opacity:0.0; 
stroke:#000000; stroke-width:98.4252; stroke-opacity:1; 
stroke-linecap:round; stroke-linejoin:round;">
<path d="M7247 4406
L7022 4406
" />
<path d="M7135 4800
L7135 4406
" />
<path d="M6928 4406
L6666 4800
" />
<path d="M6666 4406
L6928 4800
" />
<path d="M7013 5800
L7144 5613
" />
<path d="M7238 5800
L7238 5406
L7088 5406
L7050 5425
L7032 5444
L7013 5481
L7013 5538
L7032 5575
L7050 5594
L7088 5613
L7238 5613
" />
<path d="M6882 5406
L6619 5800
" />
<path d="M6619 5406
L6882 5800
" />
<path d="M7328 6425
L7366 6406
L7422 6406
L7478 6425
L7516 6463
L7535 6500
L7553 6575
L7553 6631
L7535 6706
L7516 6744
L7478 6781
L7422 6800
L7385 6800
L7328 6781
L7310 6763
L7310 6631
L7385 6631
" />
<path d="M7141 6800
L7141 6406
L6991 6406
L6953 6425
L6935 6444
L6916 6481
L6916 6538
L6935 6575
L6953 6594
L6991 6613
L7141 6613
" />
<path d="M6578 6538
L6578 6800
" />
<path d="M6672 6388
L6766 6669
L6522 6669
" />
<path d="M7328 7325
L7366 7306
L7422 7306
L7478 7325
L7516 7363
L7535 7400
L7553 7475
L7553 7531
L7535 7606
L7516 7644
L7478 7681
L7422 7700
L7385 7700
L7328 7681
L7310 7663
L7310 7531
L7385 7531
" />
<path d="M7141 7700
L7141 7306
L6991 7306
L6953 7325
L6935 7344
L6916 7381
L6916 7438
L6935 7475
L6953 7494
L6991 7513
L7141 7513
" />
<path d="M6560 7306
L6747 7306
L6766 7494
L6747 7475
L6710 7456
L6616 7456
L6578 7475
L6560 7494
L6541 7531
L6541 7625
L6560 7663
L6578 7681
L6616 7700
L6710 7700
L6747 7681
L6766 7663
" />
<path d="M7328 8425
L7366 8406
L7422 8406
L7478 8425
L7516 8463
L7535 8500
L7553 8575
L7553 8631
L7535 8706
L7516 8744
L7478 8781
L7422 8800
L7385 8800
L7328 8781
L7310 8763
L7310 8631
L7385 8631
" />
<path d="M7141 8800
L7141 8406
L6991 8406
L6953 8425
L6935 8444
L6916 8481
L6916 8538
L6935 8575
L6953 8594
L6991 8613
L7141 8613
" />
<path d="M6672 8406
L6635 8406
L6597 8425
L6578 8444
L6560 8481
L6541 8556
L6541 8650
L6560 8725
L6578 8763
L6597 8781
L6635 8800
L6672 8800
L6710 8781
L6728 8763
L6747 8725
L6766 8650
L6766 8556
L6747 8481
L6728 8444
L6710 8425
L6672 8406
" />
<path d="M7328 9425
L7366 9406
L7422 9406
L7478 9425
L7516 9463
L7535 9500
L7553 9575
L7553 9631
L7535 9706
L7516 9744
L7478 9781
L7422 9800
L7385 9800
L7328 9781
L7310 9763
L7310 9631
L7385 9631
" />
<path d="M7141 9800
L7141 9406
L6991 9406
L6953 9425
L6935 9444
L6916 9481
L6916 9538
L6935 9575
L6953 9594
L6991 9613
L7141 9613
" />
<path d="M6766 9444
L6747 9425
L6710 9406
L6616 9406
L6578 9425
L6560 9444
L6541 9481
L6541 9519
L6560 9575
L6785 9800
L6541 9800
" />
<path d="M7716 10425
L7753 10406
L7810 10406
L7866 10425
L7903 10463
L7922 10500
L7941 10575
L7941 10631
L7922 10706
L7903 10744
L7866 10781
L7810 10800
L7772 10800
L7716 10781
L7697 10763
L7697 10631
L7772 10631
" />
<path d="M7528 10800
L7528 10406
L7378 10406
L7341 10425
L7322 10444
L7303 10481
L7303 10538
L7322 10575
L7341 10594
L7378 10613
L7528 10613
" />
<path d="M6928 10800
L7153 10800
" />
<path d="M7041 10800
L7041 10406
L7078 10463
L7116 10500
L7153 10519
" />
<path d="M6572 10406
L6760 10406
L6778 10594
L6760 10575
L6722 10556
L6629 10556
L6591 10575
L6572 10594
L6554 10631
L6554 10725
L6572 10763
L6591 10781
L6629 10800
L6722 10800
L6760 10781
L6778 10763
" />
<path d="M7716 11425
L7753 11406
L7810 11406
L7866 11425
L7903 11463
L7922 11500
L7941 11575
L7941 11631
L7922 11706
L7903 11744
L7866 11781
L7810 11800
L7772 11800
L7716 11781
L7697 11763
L7697 11631
L7772 11631
" />
<path d="M7528 11800
L7528 11406
L7378 11406
L7341 11425
L7322 11444
L7303 11481
L7303 11538
L7322 11575
L7341 11594
L7378 11613
L7528 11613
" />
<path d="M6928 11800
L7153 11800
" />
<path d="M7041 11800
L7041 11406
L7078 11463
L7116 11500
L7153 11519
" />
<path d="M6797 11406
L6554 11406
L6685 11556
L6629 11556
L6591 11575
L6572 11594
L6554 11631
L6554 11725
L6572 11763
L6591 11781
L6629 11800
L6741 11800
L6778 11781
L6797 11763
" />
<path d="M7716 12425
L7753 12406
L7810 12406
L7866 12425
L7903 12463
L7922 12500
L7941 12575
L7941 12631
L7922 12706
L7903 12744
L7866 12781
L7810 12800
L7772 12800
L7716 12781
L7697 12763
L7697 12631
L7772 12631
" />
<path d="M7528 12800
L7528 12406
L7378 12406
L7341 12425
L7322 12444
L7303 12481
L7303 12538
L7322 12575
L7341 12594
L7378 12613
L7528 12613
" />
<path d="M6928 12800
L7153 12800
" />
<path d="M7041 12800
L7041 12406
L7078 12463
L7116 12500
L7153 12519
" />
<path d="M6778 12444
L6760 12425
L6722 12406
L6629 12406
L6591 12425
L6572 12444
L6554 12481
L6554 12519
L6572 12575
L6797 12800
L6554 12800
" />
<path d="M7716 13425
L7753 13406
L7810 13406
L7866 13425
L7903 13463
L7922 13500
L7941 13575
L7941 13631
L7922 13706
L7903 13744
L7866 13781
L7810 13800
L7772 13800
L7716 13781
L7697 13763
L7697 13631
L7772 13631
" />
<path d="M7528 13800
L7528 13406
L7378 13406
L7341 13425
L7322 13444
L7303 13481
L7303 13538
L7322 13575
L7341 13594
L7378 13613
L7528 13613
" />
<path d="M6928 13800
L7153 13800
" />
<path d="M7041 13800
L7041 13406
L7078 13463
L7116 13500
L7153 13519
" />
<path d="M6591 13538
L6591 13800
" />
<path d="M6685 13388
L6778 13669
L6535 13669
" />
<path d="M7716 14525
L7753 14506
L7810 14506
L7866 14525
L7903 14563
L7922 14600
L7941 14675
L7941 14731
L7922 14806
L7903 14844
L7866 14881
L7810 14900
L7772 14900
L7716 14881
L7697 14863
L7697 14731
L7772 14731
" />
<path d="M7528 14900
L7528 14506
L7378 14506
L7341 14525
L7322 14544
L7303 14581
L7303 14638
L7322 14675
L7341 14694
L7378 14713
L7528 14713
" />
<path d="M6928 14900
L7153 14900
" />
<path d="M7041 14900
L7041 14506
L7078 14563
L7116 14600
L7153 14619
" />
<path d="M6591 14506
L6666 14506
L6703 14525
L6722 14544
L6760 14600
L6778 14675
L6778 14825
L6760 14863
L6741 14881
L6703 14900
L6629 14900
L6591 14881
L6572 14863
L6554 14825
L6554 14731
L6572 14694
L6591 14675
L6629 14656
L6703 14656
L6741 14675
L6760 14694
L6778 14731
" />
</g>
<g style="fill:#000000; fill-opacity:0.0; 
stroke:#000000; stroke-width:118.11; stroke-opacity:1; 
stroke-linecap:round; stroke-linejoin:round;">
<path d="M15403 9930
L15206 9930
" />
<path d="M15122 10239
L15403 10239
L15403 9649
L15122 9649
" />
<path d="M14897 10211
L14813 10239
L14672 10239
L14616 10211
L14588 10183
L14559 10127
L14559 10070
L14588 10014
L14616 9986
L14672 9958
L14784 9930
L14841 9902
L14869 9874
L14897 9817
L14897 9761
L14869 9705
L14841 9677
L14784 9649
L14644 9649
L14559 9677
" />
<path d="M14306 10239
L14306 9649
L14081 9649
L14025 9677
L13997 9705
L13969 9761
L13969 9845
L13997 9902
L14025 9930
L14081 9958
L14306 9958
" />
<path d="M13631 9902
L13688 9874
L13716 9845
L13744 9789
L13744 9761
L13716 9705
L13688 9677
L13631 9649
L13519 9649
L13463 9677
L13435 9705
L13406 9761
L13406 9789
L13435 9845
L13463 9874
L13519 9902
L13631 9902
L13688 9930
L13716 9958
L13744 10014
L13744 10127
L13716 10183
L13688 10211
L13631 10239
L13519 10239
L13463 10211
L13435 10183
L13406 10127
L13406 10014
L13435 9958
L13463 9930
L13519 9902
" />
<path d="M13181 9705
L13153 9677
L13097 9649
L12957 9649
L12900 9677
L12872 9705
L12844 9761
L12844 9817
L12872 9902
L13210 10239
L12844 10239
" />
<path d="M12338 9649
L12450 9649
L12507 9677
L12535 9705
L12591 9789
L12619 9902
L12619 10127
L12591 10183
L12563 10211
L12507 10239
L12394 10239
L12338 10211
L12310 10183
L12282 10127
L12282 9986
L12310 9930
L12338 9902
L12394 9874
L12507 9874
L12563 9902
L12591 9930
L12619 9986
" />
<path d="M11775 9649
L11888 9649
L11944 9677
L11972 9705
L12029 9789
L12057 9902
L12057 10127
L12029 10183
L12000 10211
L11944 10239
L11832 10239
L11775 10211
L11747 10183
L11719 10127
L11719 9986
L11747 9930
L11775 9902
L11832 9874
L11944 9874
L12000 9902
L12029 9930
L12057 9986
" />
<path d="M11466 10014
L11016 10014
" />
<path d="M10622 9649
L10566 9649
L10510 9677
L10482 9705
L10454 9761
L10426 9874
L10426 10014
L10454 10127
L10482 10183
L10510 10211
L10566 10239
L10622 10239
L10679 10211
L10707 10183
L10735 10127
L10763 10014
L10763 9874
L10735 9761
L10707 9705
L10679 9677
L10622 9649
" />
<path d="M10229 9649
L9835 9649
L10088 10239
" />
</g>
<g style="fill:#000000; fill-opacity:0.0; 
stroke:#000000; stroke-width:98.4252; stroke-opacity:1; 
stroke-linecap:round; stroke-linejoin:round;">
<path d="M7197 15800
L7197 15406
L7047 15406
L7010 15425
L6991 15444
L6972 15481
L6972 15538
L6991 15575
L7010 15594
L7047 15613
L7197 15613
" />
<path d="M6803 15800
L6803 15406
L6710 15406
L6653 15425
L6616 15463
L6597 15500
L6578 15575
L6578 15631
L6597 15706
L6616 15744
L6653 15781
L6710 15800
L6803 15800
" />
<path d="M7263 17800
L7394 17613
" />
<path d="M7488 17800
L7488 17406
L7338 17406
L7300 17425
L7282 17444
L7263 17481
L7263 17538
L7282 17575
L7300 17594
L7338 17613
L7488 17613
" />
<path d="M7113 17781
L7057 17800
L6963 17800
L6925 17781
L6907 17763
L6888 17725
L6888 17688
L6907 17650
L6925 17631
L6963 17613
L7038 17594
L7075 17575
L7094 17556
L7113 17519
L7113 17481
L7094 17444
L7075 17425
L7038 17406
L6944 17406
L6888 17425
" />
<path d="M6775 17406
L6550 17406
" />
<path d="M6663 17800
L6663 17406
" />
<path d="M7581 17338
L6513 17338
" />
<path d="M6916 1406
L7103 1406
L7122 1594
L7103 1575
L7066 1556
L6972 1556
L6935 1575
L6916 1594
L6897 1631
L6897 1725
L6916 1763
L6935 1781
L6972 1800
L7066 1800
L7103 1781
L7122 1763
" />
<path d="M6785 1406
L6653 1800
L6522 1406
" />
<path d="M6944 3422
L6963 3459
L6963 3516
L6944 3572
L6907 3609
L6869 3628
L6794 3647
L6738 3647
L6663 3628
L6625 3609
L6588 3572
L6569 3516
L6569 3478
L6588 3422
L6607 3403
L6738 3403
L6738 3478
" />
<path d="M6569 3234
L6963 3234
L6569 3009
L6963 3009
" />
<path d="M6569 2822
L6963 2822
L6963 2728
L6944 2672
L6907 2635
L6869 2616
L6794 2597
L6738 2597
L6663 2616
L6625 2635
L6588 2672
L6569 2728
L6569 2822
" />
<path d="M7322 19400
L7360 19381
L7416 19381
L7472 19400
L7510 19438
L7528 19475
L7547 19550
L7547 19606
L7528 19681
L7510 19719
L7472 19756
L7416 19775
L7378 19775
L7322 19756
L7303 19738
L7303 19606
L7378 19606
" />
<path d="M7135 19775
L7135 19381
L6910 19775
L6910 19381
" />
<path d="M6722 19775
L6722 19381
L6628 19381
L6572 19400
L6535 19438
L6516 19475
L6497 19550
L6497 19606
L6516 19681
L6535 19719
L6572 19756
L6628 19775
L6722 19775
" />
<path d="M7510 18356
L7266 18356
L7397 18506
L7341 18506
L7303 18525
L7285 18544
L7266 18581
L7266 18675
L7285 18713
L7303 18731
L7341 18750
L7453 18750
L7491 18731
L7510 18713
" />
<path d="M7153 18356
L7022 18750
L6891 18356
" />
<path d="M6797 18356
L6553 18356
L6685 18506
L6628 18506
L6591 18525
L6572 18544
L6553 18581
L6553 18675
L6572 18713
L6591 18731
L6628 18750
L6741 18750
L6778 18731
L6797 18713
" />
</g>
<g style="fill:#000000; fill-opacity:0.0; 
stroke:#000000; stroke-width:118.11; stroke-opacity:1; 
stroke-linecap:round; stroke-linejoin:round;">
<path d="M8130 19467
L8721 19467
L8721 19242
L8692 19186
L8664 19158
L8608 19130
L8524 19130
L8467 19158
L8439 19186
L8411 19242
L8411 19467
" />
<path d="M8130 18539
L8411 18736
" />
<path d="M8130 18877
L8721 18877
L8721 18652
L8692 18595
L8664 18567
L8608 18539
L8524 18539
L8467 18567
L8439 18595
L8411 18652
L8411 18877
" />
<path d="M8692 17977
L8721 18033
L8721 18117
L8692 18202
L8636 18258
L8580 18286
L8467 18314
L8383 18314
L8271 18286
L8214 18258
L8158 18202
L8130 18117
L8130 18061
L8158 17977
L8186 17949
L8383 17949
L8383 18061
" />
<path d="M16005 16489
L16202 16208
" />
<path d="M16342 16489
L16342 15899
L16117 15899
L16061 15927
L16033 15955
L16005 16011
L16005 16095
L16033 16152
L16061 16180
L16117 16208
L16342 16208
" />
<path d="M15752 16180
L15555 16180
" />
<path d="M15471 16489
L15752 16489
L15752 15899
L15471 15899
" />
<path d="M15246 16461
L15161 16489
L15021 16489
L14964 16461
L14936 16433
L14908 16377
L14908 16320
L14936 16264
L14964 16236
L15021 16208
L15133 16180
L15189 16152
L15217 16124
L15246 16067
L15246 16011
L15217 15955
L15189 15927
L15133 15899
L14993 15899
L14908 15927
" />
<path d="M14655 16180
L14458 16180
" />
<path d="M14374 16489
L14655 16489
L14655 15899
L14374 15899
" />
<path d="M14205 15899
L13868 15899
" />
<path d="M14036 16489
L14036 15899
" />
</g>
<g style="fill:#000000; fill-opacity:0.0; 
stroke:#000000; stroke-width:59.0551; stroke-opacity:1; 
stroke-linecap:round; stroke-linejoin:round;">
<path d="M14663 4744
L16631 4744
" />
<path d="M14666 4799
L16628 4799
" />
<path d="M14673 4854
L15610 4854
" />
<path d="M15685 4854
L16622 4854
" />
<path d="M14682 4909
L15454 4909
" />
<path d="M15840 4909
L16612 4909
" />
<path d="M14695 4964
L15389 4964
" />
<path d="M15906 4964
L16599 4964
" />
<path d="M14711 5019
L15346 5019
" />
<path d="M15948 5019
L16583 5019
" />
<path d="M14731 5074
L15318 5074
" />
<path d="M15976 5074
L16563 5074
" />
<path d="M14755 5129
L15301 5129
" />
<path d="M15993 5129
L16539 5129
" />
<path d="M14783 5185
L15294 5185
" />
<path d="M16001 5185
L16512 5185
" />
<path d="M14815 5240
L15294 5240
" />
<path d="M16000 5240
L16479 5240
" />
<path d="M14852 5295
L15304 5295
" />
<path d="M15990 5295
L16442 5295
" />
<path d="M14896 5350
L15323 5350
" />
<path d="M15971 5350
L16398 5350
" />
<path d="M14946 5405
L15354 5405
" />
<path d="M15940 5405
L16348 5405
" />
<path d="M15005 5460
L15400 5460
" />
<path d="M15894 5460
L16289 5460
" />
<path d="M15076 5515
L15474 5515
" />
<path d="M15820 5515
L16219 5515
" />
<path d="M15162 5570
L16133 5570
" />
<path d="M15276 5625
L16019 5625
" />
<path d="M15461 5681
L15833 5681
" />
<circle cx="15647.7" cy="5206.69" r="354.331" /> 
<circle cx="15647.7" cy="4714.57" r="999.016" /> 
<path d="M7647 2823
L7247 2523
" />
<path d="M7647 2823
L8047 2523
" />
<path d="M8047 2823
L7247 2823
" />
<path d="M8047 2523
L7247 2523
" />
<path d="M11630 19300
L11709 19300
" />
<path d="M12651 19300
L12580 19300
" />
<path d="M12654 19300.8 A786.653 786.653 0.0 0 0 12529.4 18030 " />
<path d="M12580.7 19124 A608.718 608.718 0.0 0 0 12580.4 18296.1 " />
<path d="M11756.3 18021.3 A782.385 782.385 0.0 0 0 11619.8 19295.8 " />
<path d="M11717 18303.1 A582.991 582.991 0.0 0 0 11709.4 19109.4 " />
<path d="M6197 19072
L6197 1072
" />
<path d="M6197 1072
L5197 1072
" />
<path d="M5197 1072
L5197 19072
" />
<path d="M6307 20182
L6307 19572
" />
<path d="M6197 19072
L5197 19072
" />
<path d="M5087 19572
L5087 20182
" />
<path d="M5087 20182
L6307 20182
" />
<path d="M9147 18722
L9147 19722
" />
<path d="M9037 17612
L9037 18222
" />
<path d="M9147 18722
L10147 18722
" />
<path d="M10257 18222
L10257 17612
" />
<path d="M10257 17612
L9037 17612
" />
<path d="M10147 18722
L10147 19722
" />
<path d="M10147 19722
L9147 19722
" />
<path d="M11883 2877
L11411 2877
" />
<path d="M11411 3566
L11883 3566
" />
<path d="M7915 16377
L7442 16377
" />
<path d="M7442 17066
L7915 17066
" />
<circle cx="15147.7" cy="18222.4" r="1000" /> 
<path d="M16647 16722
L13647 16722
" />
<path d="M13647 16722
L13647 19722
" />
<path d="M13647 19722
L16647 19722
" />
<path d="M16647 16722
L16647 19722
" />
</g>
<g style="fill:#000000; fill-opacity:0.0; 
stroke:#000000; stroke-width:60; stroke-opacity:1; 
stroke-linecap:round; stroke-linejoin:round;">
<path d="M17279 13227
L17279 6928
" />
<path d="M17279 6928
L15153 6928
" />
<path d="M17279 13227
L15153 13227
" />
<path d="M8933 13227
L8618 13227
" />
<path d="M8618 13227
L8618 6928
" />
<path d="M8618 6928
L8933 6928
" />
<path d="M17279 6928
L15783 13227
" />
<path d="M17279 13227
L15783 6928
" />
<path d="M15783 13231
L15783 6931
" />
</g>
<g style="fill:#000000; fill-opacity:0.0; 
stroke:#000000; stroke-width:59.0551; stroke-opacity:1; 
stroke-linecap:round; stroke-linejoin:round;">
<path d="M13647 2222
L8647 2222
" />
<path d="M8647 2222
L8647 1222
" />
<path d="M8647 1222
L13647 1222
" />
<path d="M14757 2332
L14147 2332
" />
<path d="M13647 2222
L13647 1222
" />
<path d="M14147 1112
L14757 1112
" />
<path d="M14757 1112
L14757 2332
" />
<path d="M14011 4780
L13992 4798
L13973 4855
L13973 4892
L13992 4948
L14029 4986
L14067 5005
L14142 5023
L14198 5023
L14273 5005
L14310 4986
L14348 4948
L14367 4892
L14367 4855
L14348 4798
L14329 4780
" />
<path d="M14367 4648
L14367 4405
L14217 4536
L14217 4480
L14198 4442
L14179 4423
L14142 4405
L14048 4405
L14011 4423
L13992 4442
L13973 4480
L13973 4592
L13992 4630
L14011 4648
" />
<path d="M7938 1400
L7938 1006
L7844 1006
L7788 1025
L7750 1063
L7732 1100
L7713 1175
L7713 1231
L7732 1306
L7750 1344
L7788 1381
L7844 1400
L7938 1400
" />
<path d="M7582 1006
L7338 1006
L7469 1156
L7413 1156
L7375 1175
L7357 1194
L7338 1231
L7338 1325
L7357 1363
L7375 1381
L7413 1400
L7525 1400
L7563 1381
L7582 1363
" />
<path d="M6932 2416
L6932 2229
" />
<path d="M6819 2454
L7213 2323
L6819 2191
" />
<path d="M12438 17575
L12438 17181
L12344 17181
L12288 17200
L12250 17238
L12232 17275
L12213 17350
L12213 17406
L12232 17481
L12250 17519
L12288 17556
L12344 17575
L12438 17575
" />
<path d="M11875 17313
L11875 17575
" />
<path d="M11969 17163
L12063 17444
L11819 17444
" />
<path d="M11284 19990
L11678 19990
" />
<path d="M11284 19765
L11509 19934
" />
<path d="M11678 19765
L11453 19990
" />
<path d="M9938 17400
L9938 17006
L9788 17006
L9750 17025
L9732 17044
L9713 17081
L9713 17138
L9732 17175
L9750 17194
L9788 17213
L9938 17213
" />
<path d="M9582 17006
L9338 17006
L9469 17156
L9413 17156
L9375 17175
L9357 17194
L9338 17231
L9338 17325
L9357 17363
L9375 17381
L9413 17400
L9525 17400
L9563 17381
L9582 17363
" />
<path d="M11713 4227
L11844 4039
" />
<path d="M11938 4227
L11938 3833
L11788 3833
L11750 3852
L11732 3871
L11713 3908
L11713 3964
L11732 4002
L11750 4021
L11788 4039
L11938 4039
" />
<path d="M11375 3833
L11450 3833
L11488 3852
L11507 3871
L11544 3927
L11563 4002
L11563 4152
L11544 4189
L11525 4208
L11488 4227
L11413 4227
L11375 4208
L11357 4189
L11338 4152
L11338 4058
L11357 4021
L11375 4002
L11413 3983
L11488 3983
L11525 4002
L11544 4021
L11563 4058
" />
<path d="M8719 16975
L8907 17106
" />
<path d="M8719 17200
L9113 17200
L9113 17050
L9094 17013
L9075 16994
L9038 16975
L8982 16975
L8944 16994
L8925 17013
L8907 17050
L8907 17200
" />
<path d="M8719 16600
L8719 16825
" />
<path d="M8719 16713
L9113 16713
L9057 16750
L9019 16788
L9000 16825
" />
<path d="M8719 16225
L8719 16450
" />
<path d="M8719 16338
L9113 16338
L9057 16375
L9019 16413
L9000 16450
" />
<path d="M15672 18081
L15616 18100
L15522 18100
L15485 18081
L15466 18063
L15447 18025
L15447 17988
L15466 17950
L15485 17931
L15522 17913
L15597 17894
L15635 17875
L15653 17856
L15672 17819
L15672 17781
L15653 17744
L15635 17725
L15597 17706
L15503 17706
L15447 17725
" />
<path d="M15316 17706
L15222 18100
L15147 17819
L15072 18100
L14978 17706
" />
<path d="M14622 18100
L14847 18100
" />
<path d="M14735 18100
L14735 17706
L14772 17763
L14810 17800
L14847 17819
" />
<path d="M9163 12197
L8844 12197
L8807 12178
L8788 12159
L8769 12122
L8769 12047
L8788 12009
L8807 11991
L8844 11972
L9163 11972
" />
<path d="M9125 11803
L9144 11784
L9163 11747
L9163 11653
L9144 11616
L9125 11597
L9088 11578
L9050 11578
L8994 11597
L8769 11822
L8769 11578
" />
<path d="M16707 11583
L17101 11583
L16707 11358
L17101 11358
" />
<path d="M16707 11114
L16726 11151
L16745 11170
L16782 11189
L16895 11189
L16932 11170
L16951 11151
L16970 11114
L16970 11058
L16951 11020
L16932 11002
L16895 10983
L16782 10983
L16745 11002
L16726 11020
L16707 11058
L16707 11114
" />
<path d="M16745 10289
L16726 10308
L16707 10364
L16707 10402
L16726 10458
L16764 10495
L16801 10514
L16876 10533
L16932 10533
L17007 10514
L17045 10495
L17082 10458
L17101 10402
L17101 10364
L17082 10308
L17063 10289
" />
<path d="M16707 10064
L16726 10102
L16745 10120
L16782 10139
L16895 10139
L16932 10120
L16951 10102
L16970 10064
L16970 10008
L16951 9970
L16932 9952
L16895 9933
L16782 9933
L16745 9952
L16726 9970
L16707 10008
L16707 10064
" />
<path d="M16970 9764
L16576 9764
" />
<path d="M16951 9764
L16970 9727
L16970 9652
L16951 9614
L16932 9595
L16895 9577
L16782 9577
L16745 9595
L16726 9614
L16707 9652
L16707 9727
L16726 9764
" />
<path d="M16970 9408
L16576 9408
" />
<path d="M16951 9408
L16970 9370
L16970 9295
L16951 9258
L16932 9239
L16895 9220
L16782 9220
L16745 9239
L16726 9258
L16707 9295
L16707 9370
L16726 9408
" />
<path d="M16726 8902
L16707 8939
L16707 9014
L16726 9052
L16764 9070
L16913 9070
L16951 9052
L16970 9014
L16970 8939
L16951 8902
L16913 8883
L16876 8883
L16838 9070
" />
<path d="M16707 8714
L16970 8714
" />
<path d="M16895 8714
L16932 8696
L16951 8677
L16970 8639
L16970 8602
" />
<path d="M15413 1972
L15094 1972
L15057 1953
L15038 1934
L15019 1897
L15019 1822
L15038 1784
L15057 1766
L15094 1747
L15413 1747
" />
<path d="M15413 1597
L15413 1353
L15263 1484
L15263 1428
L15244 1391
L15225 1372
L15188 1353
L15094 1353
L15057 1372
L15038 1391
L15019 1428
L15019 1541
L15038 1578
L15057 1597
" />
</g>
<g style="fill:#000000; fill-opacity:0.0; 
stroke:#000000; stroke-width:19.685; stroke-opacity:1; 
stroke-linecap:round; stroke-linejoin:round;">
<circle cx="15647.7" cy="4714.57" r="1102.36" /> 
<path d="M11242 19694
L11242 17726
" />
<path d="M11242 17726
L13013 17726
" />
<path d="M13013 17726
L13013 19694
" />
<path d="M13013 19694
L11242 19694
" />
<path d="M5008 20261
L5008 871
" />
<path d="M6386 20261
L6386 871
" />
<path d="M5008 20261
L6386 20261
" />
<path d="M5008 871
L6386 871
" />
<path d="M10336 17533
L10336 19915
" />
<path d="M8958 17533
L8958 19915
" />
<path d="M10336 17533
L8958 17533
" />
<path d="M10336 19915
L8958 19915
" />
<path d="M10702 3616
L12592 3616
" />
<path d="M10702 2828
L12592 2828
" />
<path d="M10702 3616
L10702 2828
" />
<path d="M12592 3616
L12592 2828
" />
<path d="M6734 17116
L8624 17116
" />
<path d="M6734 16328
L8624 16328
" />
<path d="M6734 17116
L6734 16328
" />
<path d="M8624 17116
L8624 16328
" />
<path d="M14956 13720
L17377 13720
" />
<path d="M17377 13720
L17377 6436
" />
<path d="M17377 6436
L8460 6436
" />
<path d="M8460 6436
L8460 13720
" />
<path d="M8460 13720
L14956 13720
" />
<path d="M14836 1033
L14836 2411
" />
<path d="M8458 1033
L8458 2411
" />
<path d="M14836 1033
L8458 1033
" />
<path d="M14836 2411
L8458 2411
" />
</g>
<g style="fill:#000000; fill-opacity:0.0; 
stroke:#000000; stroke-width:59.0551; stroke-opacity:1; 
stroke-linecap:round; stroke-linejoin:round;">
<path d="M17147 722
L4647 722
" />
<path d="M17147 10222
L17147 722
" />
<path d="M17147 20222
L17147 10222
" />
<path d="M4647 20222
L17147 20222
" />
<path d="M4647 722
L4647 20222
" />
</g> 
</svg>
