<?xml version="1.0" standalone="no"?>
 <!DOCTYPE svg PUBLIC "-//W3C//DTD SVG 1.1//EN" 
 "http://www.w3.org/Graphics/SVG/1.1/DTD/svg11.dtd"> 
<svg xmlns="http://www.w3.org/2000/svg" version="1.1" 
    width="4.50088cm" height="5.91312cm" viewBox="0 0 17720 23280 ">
<title>SVG Picture created as ESP07-Breakout-brd.svg date 2016/01/05 17:38:19 </title>
  <desc>Picture generated by PCBNEW </desc>
<g style="fill:#000000; fill-opacity:1;stroke:#000000; stroke-opacity:1;
stroke-linecap:round; stroke-linejoin:round; "
 transform="translate(0 0) scale(1 1)">
</g>
<g style="fill:#000000; fill-opacity:0.0; 
stroke:#000000; stroke-width:-0.000393701; stroke-opacity:1; 
stroke-linecap:round; stroke-linejoin:round;">
</g>
<g style="fill:#000000; fill-opacity:0.0; 
stroke:#000000; stroke-width:118.11; stroke-opacity:1; 
stroke-linecap:round; stroke-linejoin:round;">
<path d="M1205 13608
L1233 13692
L1261 13721
L1317 13749
L1401 13749
L1458 13721
L1486 13692
L1514 13636
L1514 13411
L923 13411
L923 13608
L952 13664
L980 13692
L1036 13721
L1092 13721
L1148 13692
L1177 13664
L1205 13608
L1205 13411
" />
<path d="M923 14114
L923 14227
L952 14283
L1008 14339
L1120 14367
L1317 14367
L1430 14339
L1486 14283
L1514 14227
L1514 14114
L1486 14058
L1430 14002
L1317 13974
L1120 13974
L1008 14002
L952 14058
L923 14114
" />
<path d="M923 14536
L923 14874
" />
<path d="M1514 14705
L923 14705
" />
<path d="M923 14986
L923 15323
" />
<path d="M1514 15155
L923 15155
" />
<path d="M923 15633
L923 15745
L952 15802
L1008 15858
L1120 15886
L1317 15886
L1430 15858
L1486 15802
L1514 15745
L1514 15633
L1486 15577
L1430 15520
L1317 15492
L1120 15492
L1008 15520
L952 15577
L923 15633
" />
<path d="M1514 16139
L923 16139
L1345 16336
L923 16533
L1514 16533
" />
</g>
<g style="fill:#000000; fill-opacity:0.0; 
stroke:#000000; stroke-width:0; stroke-opacity:1; 
stroke-linecap:round; stroke-linejoin:round;">
</g>
<g style="fill:#000000; fill-opacity:1.0; 
stroke:#000000; stroke-width:0; stroke-opacity:1; 
stroke-linecap:round; stroke-linejoin:round;">
<polyline style="fill-rule:evenodd;"
points="776,10418
1367,10418
1367,11599
776,11599
776,10418
" /> 
<polyline style="fill-rule:evenodd;"
points="776,8844
1367,8844
1367,10025
776,10025
776,8844
" /> 
<polyline style="fill-rule:evenodd;"
points="826,3935
1318,3935
1318,4525
826,4525
826,3935
" /> 
<polyline style="fill-rule:evenodd;"
points="826,4919
1318,4919
1318,5509
826,5509
826,4919
" /> 
<polyline style="fill-rule:evenodd;"
points="1816,3966
2328,3966
2328,4478
1816,4478
1816,3966
" /> 
<circle cx="2072.32" cy="5206.69" r="255.906" /> 
</g>
<g style="fill:#000000; fill-opacity:1.0; 
stroke:#000000; stroke-width:39.3701; stroke-opacity:1; 
stroke-linecap:round; stroke-linejoin:round;">
</g>
<g style="fill:#000000; fill-opacity:1.0; 
stroke:#000000; stroke-width:0; stroke-opacity:1; 
stroke-linecap:round; stroke-linejoin:round;">
<polyline style="fill-rule:evenodd;"
points="2318,3009
1826,3009
1826,2419
2318,2419
2318,3009
" /> 
<polyline style="fill-rule:evenodd;"
points="2318,2025
1826,2025
1826,1435
2318,1435
2318,2025
" /> 
<polyline style="fill-rule:evenodd;"
points="10318,12509
9826,12509
9826,11919
10318,11919
10318,12509
" /> 
<polyline style="fill-rule:evenodd;"
points="10318,11525
9826,11525
9826,10935
10318,10935
10318,11525
" /> 
<circle cx="10072.3" cy="1923.23" r="393.5" /> 
</g>
<g style="fill:#000000; fill-opacity:1.0; 
stroke:#000000; stroke-width:39.3701; stroke-opacity:1; 
stroke-linecap:round; stroke-linejoin:round;">
</g>
<g style="fill:#000000; fill-opacity:1.0; 
stroke:#000000; stroke-width:0; stroke-opacity:1; 
stroke-linecap:round; stroke-linejoin:round;">
<polyline style="fill-rule:evenodd;"
points="10465,3816
9678,3816
9678,3029
10465,3029
10465,3816
" /> 
<polyline style="fill-rule:evenodd;"
points="5966,18828
5966,19616
5178,19616
5178,18828
5966,18828
" /> 
<circle cx="5572.32" cy="18222.4" r="393.701" /> 
</g>
<g style="fill:#000000; fill-opacity:1.0; 
stroke:#000000; stroke-width:39.3701; stroke-opacity:1; 
stroke-linecap:round; stroke-linejoin:round;">
</g>
<g style="fill:#000000; fill-opacity:1.0; 
stroke:#000000; stroke-width:0; stroke-opacity:1; 
stroke-linecap:round; stroke-linejoin:round;">
<polyline style="fill-rule:evenodd;"
points="10332,6399
10812,6399
10812,6757
10332,6757
10332,6399
" /> 
<polyline style="fill-rule:evenodd;"
points="10332,7687
10812,7687
10812,8045
10332,8045
10332,7687
" /> 
<polyline style="fill-rule:evenodd;"
points="12422,19232
12422,19912
11622,19912
11622,19232
12422,19232
" /> 
</g>
<g style="fill:#000000; fill-opacity:1.0; 
stroke:#000000; stroke-width:680; stroke-opacity:1; 
stroke-linecap:round; stroke-linejoin:round;">
</g>
<g style="fill:#000000; fill-opacity:0.0; 
stroke:#000000; stroke-width:680; stroke-opacity:1; 
stroke-linecap:round; stroke-linejoin:round;">
<path d="M12082 18572
L11962 18572
" />
<path d="M12082 17572
L11962 17572
" />
<path d="M12082 16572
L11962 16572
" />
<path d="M12082 15572
L11962 15572
" />
<path d="M12082 14572
L11962 14572
" />
<path d="M12082 13572
L11962 13572
" />
<path d="M12082 12572
L11962 12572
" />
<path d="M12082 11572
L11962 11572
" />
<path d="M12082 10572
L11962 10572
" />
<path d="M12082 9572
L11962 9572
" />
<path d="M12082 8572
L11962 8572
" />
<path d="M12082 7572
L11962 7572
" />
<path d="M12082 6572
L11962 6572
" />
<path d="M12082 5572
L11962 5572
" />
<path d="M12082 4572
L11962 4572
" />
<path d="M12082 3572
L11962 3572
" />
<path d="M12082 2572
L11962 2572
" />
<path d="M12082 1572
L11962 1572
" />
</g>
<g style="fill:#000000; fill-opacity:0.0; 
stroke:#000000; stroke-width:0; stroke-opacity:1; 
stroke-linecap:round; stroke-linejoin:round;">
</g>
<g style="fill:#000000; fill-opacity:1.0; 
stroke:#000000; stroke-width:0; stroke-opacity:1; 
stroke-linecap:round; stroke-linejoin:round;">
<polyline style="fill-rule:evenodd;"
points="7672,18622
7672,17822
8472,17822
8472,18622
7672,18622
" /> 
</g>
<g style="fill:#000000; fill-opacity:1.0; 
stroke:#000000; stroke-width:800; stroke-opacity:1; 
stroke-linecap:round; stroke-linejoin:round;">
</g>
<g style="fill:#000000; fill-opacity:0.0; 
stroke:#000000; stroke-width:800; stroke-opacity:1; 
stroke-linecap:round; stroke-linejoin:round;">
<path d="M8072 19222
L8072 19222
" />
</g>
<g style="fill:#000000; fill-opacity:0.0; 
stroke:#000000; stroke-width:0; stroke-opacity:1; 
stroke-linecap:round; stroke-linejoin:round;">
</g>
<g style="fill:#000000; fill-opacity:1.0; 
stroke:#000000; stroke-width:0; stroke-opacity:1; 
stroke-linecap:round; stroke-linejoin:round;">
<polyline style="fill-rule:evenodd;"
points="5899,10466
5899,10978
5308,10978
5308,10466
5899,10466
" /> 
<polyline style="fill-rule:evenodd;"
points="4836,10466
4836,10978
4245,10978
4245,10466
4836,10466
" /> 
<polyline style="fill-rule:evenodd;"
points="1816,9927
2328,9927
2328,10517
1816,10517
1816,9927
" /> 
<polyline style="fill-rule:evenodd;"
points="1816,10990
2328,10990
2328,11580
1816,11580
1816,10990
" /> 
<polyline style="fill-rule:evenodd;"
points="1316,6395
1828,6395
1828,6986
1316,6986
1316,6395
" /> 
<polyline style="fill-rule:evenodd;"
points="1316,7458
1828,7458
1828,8049
1316,8049
1316,7458
" /> 
<polyline style="fill-rule:evenodd;"
points="7816,2864
8328,2864
8328,3454
7816,3454
7816,2864
" /> 
<polyline style="fill-rule:evenodd;"
points="7816,3927
8328,3927
8328,4517
7816,4517
7816,3927
" /> 
<polyline style="fill-rule:evenodd;"
points="5316,15895
5828,15895
5828,16486
5316,16486
5316,15895
" /> 
<polyline style="fill-rule:evenodd;"
points="5316,16958
5828,16958
5828,17549
5316,17549
5316,16958
" /> 
<polyline style="fill-rule:evenodd;"
points="6828,10049
6316,10049
6316,9458
6828,9458
6828,10049
" /> 
<polyline style="fill-rule:evenodd;"
points="6828,8986
6316,8986
6316,8395
6828,8395
6828,8986
" /> 
<polyline style="fill-rule:evenodd;"
points="7316,8395
7828,8395
7828,8986
7316,8986
7316,8395
" /> 
<polyline style="fill-rule:evenodd;"
points="7316,9458
7828,9458
7828,10049
7316,10049
7316,9458
" /> 
<polyline style="fill-rule:evenodd;"
points="10316,8427
10828,8427
10828,9017
10316,9017
10316,8427
" /> 
<polyline style="fill-rule:evenodd;"
points="10316,9490
10828,9490
10828,10080
10316,10080
10316,9490
" /> 
<polyline style="fill-rule:evenodd;"
points="3328,12049
2816,12049
2816,11458
3328,11458
3328,12049
" /> 
<polyline style="fill-rule:evenodd;"
points="3328,10986
2816,10986
2816,10395
3328,10395
3328,10986
" /> 
<circle cx="4072.32" cy="17222.4" r="275" /> 
</g>
<g style="fill:#000000; fill-opacity:1.0; 
stroke:#000000; stroke-width:39.3701; stroke-opacity:1; 
stroke-linecap:round; stroke-linejoin:round;">
</g>
<g style="fill:#000000; fill-opacity:1.0; 
stroke:#000000; stroke-width:0; stroke-opacity:1; 
stroke-linecap:round; stroke-linejoin:round;">
<circle cx="4072.32" cy="19222.4" r="275" /> 
</g>
<g style="fill:#000000; fill-opacity:1.0; 
stroke:#000000; stroke-width:39.3701; stroke-opacity:1; 
stroke-linecap:round; stroke-linejoin:round;">
</g>
<g style="fill:#000000; fill-opacity:1.0; 
stroke:#000000; stroke-width:0; stroke-opacity:1; 
stroke-linecap:round; stroke-linejoin:round;">
<circle cx="1072.32" cy="17222.4" r="275" /> 
</g>
<g style="fill:#000000; fill-opacity:1.0; 
stroke:#000000; stroke-width:39.3701; stroke-opacity:1; 
stroke-linecap:round; stroke-linejoin:round;">
</g>
<g style="fill:#000000; fill-opacity:1.0; 
stroke:#000000; stroke-width:0; stroke-opacity:1; 
stroke-linecap:round; stroke-linejoin:round;">
<circle cx="1072.32" cy="19222.4" r="275" /> 
</g>
<g style="fill:#000000; fill-opacity:1.0; 
stroke:#000000; stroke-width:39.3701; stroke-opacity:1; 
stroke-linecap:round; stroke-linejoin:round;">
</g>
<g style="fill:#000000; fill-opacity:1.0; 
stroke:#000000; stroke-width:0; stroke-opacity:1; 
stroke-linecap:round; stroke-linejoin:round;">
<polyline style="fill-rule:evenodd;"
points="6972,4942
6172,4942
6172,3502
6972,3502
6972,4942
" /> 
<polyline style="fill-rule:evenodd;"
points="4372,4422
3572,4422
3572,4022
4372,4022
4372,4422
" /> 
<polyline style="fill-rule:evenodd;"
points="4372,3522
3572,3522
3572,3122
4372,3122
4372,3522
" /> 
<polyline style="fill-rule:evenodd;"
points="4372,5322
3572,5322
3572,4922
4372,4922
4372,5322
" /> 
<polyline style="fill-rule:evenodd;"
points="3176,13601
2743,13601
2743,12617
3176,12617
3176,13601
" /> 
</g>
<g style="fill:#000000; fill-opacity:1.0; 
stroke:#000000; stroke-width:433.071; stroke-opacity:1; 
stroke-linecap:round; stroke-linejoin:round;">
</g>
<g style="fill:#000000; fill-opacity:0.0; 
stroke:#000000; stroke-width:433.071; stroke-opacity:1; 
stroke-linecap:round; stroke-linejoin:round;">
<path d="M3747 13385
L3747 12834
" />
<path d="M4534 13385
L4534 12834
" />
<path d="M5322 13385
L5322 12834
" />
<path d="M6109 13385
L6109 12834
" />
<path d="M6897 13385
L6897 12834
" />
<path d="M7684 13385
L7684 12834
" />
<path d="M8471 13385
L8471 12834
" />
<path d="M8471 7322
L8471 6771
" />
<path d="M7684 7361
L7684 6810
" />
<path d="M6897 7322
L6897 6771
" />
<path d="M6109 7322
L6109 6771
" />
<path d="M5322 7322
L5322 6771
" />
<path d="M4534 7322
L4534 6771
" />
<path d="M3747 7322
L3747 6771
" />
<path d="M2960 7322
L2960 6771
" />
</g>
<g style="fill:#000000; fill-opacity:0.0; 
stroke:#000000; stroke-width:0; stroke-opacity:1; 
stroke-linecap:round; stroke-linejoin:round;">
</g>
<g style="fill:#000000; fill-opacity:1.0; 
stroke:#000000; stroke-width:0; stroke-opacity:1; 
stroke-linecap:round; stroke-linejoin:round;">
<polyline style="fill-rule:evenodd;"
points="3232,2122
3232,1322
3912,1322
3912,2122
3232,2122
" /> 
</g>
<g style="fill:#000000; fill-opacity:1.0; 
stroke:#000000; stroke-width:680; stroke-opacity:1; 
stroke-linecap:round; stroke-linejoin:round;">
</g>
<g style="fill:#000000; fill-opacity:0.0; 
stroke:#000000; stroke-width:680; stroke-opacity:1; 
stroke-linecap:round; stroke-linejoin:round;">
<path d="M4572 1662
L4572 1782
" />
<path d="M5572 1662
L5572 1782
" />
<path d="M6572 1662
L6572 1782
" />
<path d="M7572 1662
L7572 1782
" />
<path d="M8572 1662
L8572 1782
" />
</g>
<g style="fill:#000000; fill-opacity:0.0; 
stroke:#000000; stroke-width:118.11; stroke-opacity:1; 
stroke-linecap:round; stroke-linejoin:round;">
<path d="M1072 17222
L4072 17222
" />
<path d="M2198 11718
L2072 11718
" />
<path d="M2960 12479
L2198 11718
" />
<path d="M2960 12834
L2960 12479
" />
<path d="M2072 11285
L2072 11502
" />
<path d="M2072 11502
L2072 11718
" />
<path d="M1998 11502
L1505 11009
" />
<path d="M2072 11502
L1998 11502
" />
<path d="M1072 11009
L1505 11009
" />
<path d="M10572 5697
L8847 3972
" />
<path d="M8572 1722
L8572 2240
" />
<path d="M8572 2240
L8847 2515
" />
<path d="M8847 2515
L8847 3972
" />
<path d="M10572 6578
L10572 6261
" />
<path d="M10572 6261
L10572 5697
" />
<path d="M922 7380
L1572 6730
" />
<path d="M1572 6730
L1572 6690
" />
<path d="M922 8576
L922 7380
" />
<path d="M1072 9435
L1072 8726
" />
<path d="M1072 8726
L922 8576
" />
<path d="M3972 4222
L4772 4222
" />
<path d="M4772 4222
L4922 4372
" />
<path d="M4922 4372
L4922 5447
" />
<path d="M4922 5447
L4660 5709
" />
<path d="M4660 5709
L2947 5709
" />
<path d="M2947 5709
L1966 6690
" />
<path d="M1966 6690
L1572 6690
" />
<path d="M12022 18572
L11504 18572
" />
<path d="M11504 18572
L8471 15540
" />
<path d="M8471 15540
L8471 12834
" />
<path d="M10072 12214
L11064 12214
" />
<path d="M11064 12214
L11072 12206
" />
<path d="M11072 12206
L11072 10722
" />
<path d="M11072 10722
L10572 10222
" />
<path d="M10572 10222
L10572 9785
" />
<path d="M1178 8600
L1072 8707
" />
<path d="M1072 9435
L1072 8707
" />
<path d="M1464 4222
L1456 4230
" />
<path d="M2072 4222
L1464 4222
" />
<path d="M1072 4230
L1456 4230
" />
<path d="M3972 4222
L2072 4222
" />
<path d="M8566 12740
L8471 12834
" />
<path d="M6548 10211
L6548 10722
" />
<path d="M6572 10187
L6548 10211
" />
<path d="M8566 12740
L6548 10722
" />
<path d="M6548 10722
L5603 10722
" />
<path d="M6572 9753
L6572 10187
" />
<path d="M8572 12733
L8569 12736
" />
<path d="M8569 12736
L8566 12740
" />
<path d="M10072 12214
L9688 12214
" />
<path d="M8569 12736
L9165 12736
" />
<path d="M9165 12736
L9688 12214
" />
<path d="M6031 14797
L5847 14612
" />
<path d="M5847 14612
L5676 14442
" />
</g>
<g style="fill:#000000; fill-opacity:0.0; 
stroke:#000000; stroke-width:78.7402; stroke-opacity:1; 
stroke-linecap:round; stroke-linejoin:round;">
<path d="M5072 11322
L4928 11466
" />
<path d="M4928 11466
L4928 13694
" />
<path d="M4928 13694
L5847 14612
" />
<path d="M5072 11268
L5072 11322
" />
</g>
<g style="fill:#000000; fill-opacity:0.0; 
stroke:#000000; stroke-width:118.11; stroke-opacity:1; 
stroke-linecap:round; stroke-linejoin:round;">
<path d="M6113 14879
L6031 14797
" />
<path d="M6722 15487
L6031 14797
" />
<path d="M6722 18672
L6722 15487
" />
<path d="M6172 19222
L6722 18672
" />
<path d="M5572 19222
L6172 19222
" />
<path d="M8471 7322
L10602 7322
" />
<path d="M11147 5772
L9297 3922
" />
<path d="M10602 7322
L11147 6777
" />
<path d="M11147 6777
L11147 5772
" />
<path d="M9297 3922
L9297 2698
" />
<path d="M9297 2698
L10072 1923
" />
<path d="M12082 3572
L12022 3572
" />
<path d="M10572 19222
L10922 19572
" />
<path d="M10922 19572
L12022 19572
" />
<path d="M8072 19222
L10572 19222
" />
<path d="M12022 19572
L12082 19572
" />
<path d="M5072 10222
L5322 9972
" />
<path d="M5322 9972
L5822 9472
" />
<path d="M3072 10690
L3072 10651
" />
<path d="M3072 10651
L3751 9972
" />
<path d="M3751 9972
L5322 9972
" />
<path d="M5822 9222
L5822 9472
" />
<path d="M5822 9472
L5822 9520
" />
<path d="M5072 11268
L5072 10222
" />
<path d="M5822 9520
L5572 9770
" />
<path d="M7080 9222
L5822 9222
" />
<path d="M7572 9753
L7572 9714
" />
<path d="M7572 9714
L7080 9222
" />
<path d="M8572 7422
L8471 7322
" />
<path d="M1072 19222
L4072 19222
" />
<path d="M10721 2572
L10072 1923
" />
<path d="M12022 2572
L10721 2572
" />
<path d="M2464 1722
L2456 1730
" />
<path d="M3572 1722
L2464 1722
" />
<path d="M2072 1730
L2456 1730
" />
<path d="M2082 5196
L2072 5206
" />
<path d="M1474 5196
L1456 5214
" />
<path d="M2082 5196
L1474 5196
" />
<path d="M1072 5214
L1456 5214
" />
<path d="M2156 5122
L2082 5196
" />
<path d="M3972 5122
L2156 5122
" />
<path d="M7572 9753
L7966 9753
" />
<path d="M10072 11230
L9688 11230
" />
<path d="M8089 9631
L9688 11230
" />
<path d="M8572 9147
L8089 9631
" />
<path d="M8572 7422
L8572 9147
" />
<path d="M8089 9631
L7966 9753
" />
<path d="M5766 19222
L6103 19222
" />
<path d="M5766 19222
L5572 19222
" />
<path d="M5572 19222
L4072 19222
" />
<path d="M6379 18947
L6103 19222
" />
<path d="M6654 19222
L8072 19222
" />
<path d="M6379 18947
L6654 19222
" />
<path d="M5572 17253
L5572 18222
" />
<path d="M10572 8722
L10966 8722
" />
<path d="M10572 7866
L10572 8183
" />
<path d="M10808 8183
L10572 8183
" />
<path d="M11116 8491
L10808 8183
" />
<path d="M11116 8572
L11116 8491
" />
<path d="M12022 8572
L11116 8572
" />
<path d="M11116 8572
L10966 8722
" />
<path d="M4534 11122
L4540 11116
" />
<path d="M4534 12834
L4534 11122
" />
<path d="M4540 10722
L4540 11116
" />
<path d="M5204 5722
L4772 6154
" />
<path d="M4772 6154
L3221 6154
" />
<path d="M3221 6154
L2960 6416
" />
<path d="M8072 4222
L8072 4635
" />
<path d="M8072 4635
L6985 5722
" />
<path d="M6985 5722
L5204 5722
" />
<path d="M2960 6416
L2960 7322
" />
<path d="M2522 9147
L2247 9147
" />
<path d="M2247 9147
L1966 9147
" />
<path d="M1572 7753
L1946 7753
" />
<path d="M1946 7753
L2247 8054
" />
<path d="M2247 8054
L2247 9147
" />
<path d="M3747 7922
L2522 9147
" />
<path d="M1966 9147
L1966 9683
" />
<path d="M3747 7322
L3747 7922
" />
<path d="M3747 7322
L3747 7572
" />
<path d="M12022 5572
L11709 5572
" />
<path d="M11709 5572
L10072 3934
" />
<path d="M10072 3934
L10072 3423
" />
<path d="M2072 10005
L2072 9789
" />
<path d="M2072 10005
L2072 10222
" />
<path d="M1966 9683
L2072 9789
" />
<path d="M3747 7322
L3747 7676
" />
</g>
<g style="fill:#000000; fill-opacity:0.0; 
stroke:#000000; stroke-width:78.7402; stroke-opacity:1; 
stroke-linecap:round; stroke-linejoin:round;">
<path d="M3170 9722
L2547 10345
" />
<path d="M2547 10345
L2547 11036
" />
<path d="M2547 11036
L2674 11163
" />
<path d="M2674 11163
L3469 11163
" />
<path d="M3469 11163
L3854 11547
" />
<path d="M3854 11547
L4141 11547
" />
<path d="M4141 11547
L4141 14385
" />
<path d="M4141 14385
L5572 15816
" />
<path d="M5572 15816
L5572 16190
" />
<path d="M3170 9722
L3147 9722
" />
<path d="M4534 8358
L3170 9722
" />
<path d="M4534 7322
L4534 8358
" />
</g>
<g style="fill:#000000; fill-opacity:0.0; 
stroke:#000000; stroke-width:118.11; stroke-opacity:1; 
stroke-linecap:round; stroke-linejoin:round;">
<path d="M6897 7932
L6572 8257
" />
<path d="M6897 7322
L6897 7932
" />
<path d="M6572 8690
L6572 8257
" />
<path d="M7684 8145
L7572 8257
" />
<path d="M7684 7322
L7684 8145
" />
<path d="M7572 8690
L7572 8257
" />
<path d="M7572 3053
L7678 3159
" />
<path d="M7572 1722
L7572 3053
" />
<path d="M8072 3159
L7678 3159
" />
<path d="M5572 1722
L5572 1472
" />
<path d="M5572 1472
L5950 1094
" />
<path d="M5950 1094
L12022 1094
" />
<path d="M12022 1094
L12022 1572
" />
<path d="M5234 2260
L5572 2260
" />
<path d="M4772 2722
L5234 2260
" />
<path d="M5572 1722
L5572 2260
" />
<path d="M4172 3322
L4772 2722
" />
<path d="M3972 3322
L4172 3322
" />
<path d="M3064 3322
L2456 2714
" />
<path d="M3972 3322
L3064 3322
" />
<path d="M2072 2714
L2456 2714
" />
<path d="M3747 12035
L3466 11753
" />
<path d="M3747 12834
L3747 12035
" />
<path d="M3072 11753
L3466 11753
" />
</g>
<g style="fill:#000000; fill-opacity:1.0; 
stroke:#000000; stroke-width:78.7402; stroke-opacity:1; 
stroke-linecap:round; stroke-linejoin:round;">
<polyline style="fill-rule:evenodd;"
points="5568,1114
5366,1154
5192,1271
5076,1445
5072,1465
5068,1445
4951,1271
4777,1154
4572,1113
4366,1154
4192,1271
4151,1332
4151,1274
4115,1186
4047,1119
3959,1083
3692,1083
3632,1142
3632,1661
3640,1661
3640,1783
3632,1783
3632,2301
3692,2361
3959,2361
4047,2325
4115,2258
4151,2170
4151,2112
4192,2173
4366,2290
4572,2330
4777,2290
4951,2173
5068,1999
5072,1979
5076,1999
5106,2044
5053,2079
4591,2541
4591,2541
4211,2921
3572,2921
3499,2935
3432,2978
3387,3044
3382,3066
3170,3066
2637,2533
2554,2478
2537,2474
2519,2471
2519,2419
2505,2346
2462,2279
2412,2245
2453,2228
2521,2161
2557,2073
2557,1850
2549,1842
2992,1842
2992,2170
3029,2258
3096,2325
3184,2361
3451,2361
3511,2301
3511,1783
3052,1783
2992,1842
2549,1842
2497,1790
2132,1790
2132,1798
2011,1798
2011,1790
1646,1790
1586,1850
1586,2073
1623,2161
1690,2228
1732,2245
1686,2275
1641,2341
1625,2419
1625,3009
1639,3082
1682,3149
1748,3194
1826,3210
2318,3210
2391,3196
2458,3153
2488,3109
2883,3503
2966,3558
3064,3578
3382,3578
3385,3595
3428,3662
3494,3707
3572,3723
4372,3723
4445,3709
4512,3666
4557,3600
4573,3522
4573,3502
5971,3502
5971,4942
5985,5015
6028,5082
6094,5127
6172,5143
6972,5143
7045,5129
7112,5086
7157,5020
7173,4942
7173,3502
7159,3429
7116,3362
7050,3317
6972,3301
6172,3301
6099,3315
6032,3358
5987,3424
5971,3502
4573,3502
4573,3283
4953,2903
4953,2903
5340,2516
5572,2516
5670,2496
5753,2441
5808,2358
5828,2260
5828,2256
5951,2173
6068,1999
6072,1979
6076,1999
6192,2173
6366,2290
6572,2330
6777,2290
6951,2173
7068,1999
7072,1979
7076,1999
7192,2173
7316,2256
7316,3053
7330,3122
7335,3151
7391,3234
7497,3340
7530,3362
7580,3395
7615,3402
7615,3454
7629,3527
7672,3594
7738,3639
7816,3655
8328,3655
8401,3641
8468,3598
8513,3532
8528,3454
8528,2864
8515,2791
8472,2724
8406,2679
8328,2663
7828,2663
7828,2256
7951,2173
8068,1999
8072,1979
8076,1999
8192,2173
8320,2258
8326,2292
8335,2338
8391,2421
8591,2621
8591,3972
8607,4054
8610,4070
8666,4153
10316,5803
10316,6201
10259,6212
10192,6255
10147,6321
10131,6399
10131,6757
10145,6830
10188,6897
10254,6942
10332,6958
10812,6958
10885,6944
10952,6901
10997,6835
11013,6757
11013,6399
10999,6326
10956,6259
10890,6214
10828,6202
10828,5697
10808,5599
10808,5599
10753,5516
9102,3866
9102,2722
11402,2722
11493,2912
11659,3066
11676,3072
11659,3078
11493,3232
11402,3422
11446,3511
11961,3511
11961,2633
12082,2633
12082,3511
12598,3511
12641,3422
12551,3232
12385,3078
12368,3072
12385,3066
12551,2912
12641,2722
12598,2633
12082,2633
11961,2633
11446,2633
11402,2722
9102,2722
9102,2515
9083,2417
9057,2377
9703,2377
9743,2478
9981,2562
10232,2548
10400,2478
10441,2377
10072,2008
9703,2377
9057,2377
9028,2334
8901,2207
8951,2173
9068,1999
9101,1832
9433,1832
9447,2083
9516,2251
9617,2292
9986,1923
10158,1923
10526,2292
10627,2251
10711,2014
10697,1762
10627,1594
10526,1554
10158,1923
9986,1923
9617,1554
9516,1594
9433,1832
9101,1832
9109,1794
9109,1650
9068,1445
9004,1350
9785,1350
9743,1367
9703,1468
10072,1837
10441,1468
10400,1367
10351,1350
11465,1350
11454,1366
11413,1572
11454,1777
11571,1952
11724,2054
11659,2078
11493,2232
11402,2422
11446,2511
11961,2511
11961,2503
12082,2503
12082,2511
12598,2511
12641,2422
12551,2232
12385,2078
12320,2054
12473,1952
12590,1777
12630,1572
12590,1366
12473,1192
12299,1076
12273,1071
12258,996
12226,948
12845,948
12845,19996
12646,19996
12661,19960
12661,19692
12601,19633
12082,19633
12082,19640
11961,19640
11961,19633
11442,19633
11382,19692
11382,19960
11397,19996
798,19996
798,19622
815,19679
1009,19743
1213,19727
1329,19679
1355,19591
3789,19591
3815,19679
4009,19743
4213,19727
4329,19679
4355,19591
4072,19308
3789,19591
1355,19591
1072,19308
1066,19313
981,19228
986,19222
1158,19222
1440,19505
1529,19479
1593,19285
1583,19159
3551,19159
3567,19363
3615,19479
3703,19505
3986,19222
4158,19222
4440,19505
4529,19479
4574,19342
4939,19342
4939,19663
4975,19751
5043,19819
5131,19855
5451,19855
5511,19795
5511,19283
5632,19283
5632,19795
5692,19855
6013,19855
6101,19819
6168,19751
6205,19663
6205,19381
7453,19381
7521,19547
7688,19733
7912,19841
8011,19799
8011,19283
8132,19283
8132,19799
8231,19841
8456,19733
8622,19547
8691,19381
8648,19283
8132,19283
8011,19283
7495,19283
7453,19381
6205,19381
6205,19342
6145,19283
5632,19283
5511,19283
4999,19283
4939,19342
4574,19342
4593,19285
4577,19081
4529,18965
4440,18939
4158,19222
3986,19222
3703,18939
3615,18965
3551,19159
1583,19159
1577,19081
1529,18965
1440,18939
1158,19222
986,19222
981,19216
1066,19131
1072,19136
1355,18853
3789,18853
4072,19136
4355,18853
4334,18781
4939,18781
4939,19101
4999,19161
5511,19161
5511,19153
5632,19153
5632,19161
6145,19161
6205,19101
6205,19062
7453,19062
7495,19161
8011,19161
8011,19153
8132,19153
8132,19161
8648,19161
8691,19062
8622,18897
8544,18809
8545,18809
8612,18766
8657,18700
8673,18622
8673,17822
8659,17749
8616,17682
8550,17637
8472,17621
7672,17621
7599,17635
7532,17678
7487,17744
7471,17822
7471,18622
7485,18695
7528,18762
7594,18807
7601,18808
7521,18897
7453,19062
6205,19062
6205,18781
6168,18693
6101,18625
6032,18597
6072,18557
6162,18340
6162,18105
6073,17888
5913,17728
5968,17693
6013,17627
6028,17549
6028,16958
6015,16885
5972,16818
5906,16773
5828,16757
5316,16757
5243,16771
5176,16814
5131,16880
5115,16958
5115,17549
5129,17622
5172,17689
5230,17728
5071,17887
4981,18104
4981,18339
5071,18556
5112,18597
5043,18625
4975,18693
4939,18781
4334,18781
4329,18765
4134,18701
3930,18717
3815,18765
3789,18853
1355,18853
1329,18765
1134,18701
930,18717
815,18765
798,18822
798,17616
804,17622
978,17694
1165,17694
1339,17622
1472,17490
1476,17478
3667,17478
3672,17489
3804,17622
3978,17694
4165,17694
4339,17622
4472,17490
4544,17316
4544,17128
4472,16955
4339,16822
4166,16750
3978,16750
3805,16822
3672,16954
3667,16966
1477,16966
1472,16955
1446,16929
1916,16929
1916,13287
2374,13261
2387,13258
2400,13250
2408,13237
2411,13221
2396,12278
2599,12480
2558,12539
2542,12617
2542,13601
2556,13674
2599,13741
2665,13786
2743,13802
3176,13802
3249,13788
3316,13745
3361,13680
3377,13601
3377,13574
3455,13691
3589,13780
3747,13812
3905,13780
3905,14385
3922,14476
3974,14552
5175,15753
5131,15817
5115,15895
5115,16486
5129,16559
5172,16626
5238,16671
5316,16686
5828,16686
5901,16673
5968,16630
6013,16564
6028,16486
6028,15895
6015,15822
5972,15755
5906,15710
5828,15694
5769,15694
5739,15649
4377,14287
4377,13780
4534,13812
4693,13780
4827,13691
4916,13557
4928,13497
4940,13557
5030,13691
5164,13780
5322,13812
5480,13780
5614,13691
5704,13557
5716,13497
5727,13557
5817,13691
5951,13780
6109,13812
6267,13780
6402,13691
6491,13557
6503,13497
6515,13557
6604,13691
6738,13780
6897,13812
7055,13780
7189,13691
7279,13557
7290,13497
7302,13557
7392,13691
7526,13780
7684,13812
7842,13780
7976,13691
8066,13557
8078,13497
8090,13557
8179,13691
8216,13715
8216,15540
8222,15572
8235,15638
8290,15721
11323,18753
11406,18808
11485,18824
11571,18952
11632,18993
11574,18993
11486,19029
11419,19096
11382,19184
11382,19451
11442,19511
11961,19511
11961,19503
12082,19503
12082,19511
12601,19511
12661,19451
12661,19184
12625,19096
12557,19029
12469,18993
12412,18993
12473,18952
12590,18777
12630,18572
12590,18366
12473,18192
12299,18076
12279,18072
12299,18068
12473,17952
12590,17777
12630,17572
12590,17366
12473,17192
12299,17076
12279,17072
12299,17068
12473,16952
12590,16777
12630,16572
12590,16366
12473,16192
12299,16076
12279,16072
12299,16068
12473,15952
12590,15777
12630,15572
12590,15366
12473,15192
12299,15076
12279,15072
12299,15068
12473,14952
12590,14777
12630,14572
12590,14366
12473,14192
12299,14076
12279,14072
12299,14068
12473,13952
12590,13777
12630,13572
12590,13366
12473,13192
12299,13076
12279,13072
12299,13068
12473,12952
12590,12777
12630,12572
12590,12366
12473,12192
12299,12076
12279,12072
12299,12068
12473,11952
12590,11777
12630,11572
12590,11366
12473,11192
12299,11076
12279,11072
12299,11068
12473,10952
12590,10777
12630,10572
12590,10366
12473,10192
12299,10076
12279,10072
12299,10068
12473,9952
12590,9777
12630,9572
12590,9366
12473,9192
12299,9076
12279,9072
12299,9068
12473,8952
12590,8777
12630,8572
12590,8366
12473,8192
12299,8076
12279,8072
12299,8068
12473,7952
12590,7777
12630,7572
12590,7366
12473,7192
12299,7076
12279,7072
12299,7068
12473,6952
12590,6777
12630,6572
12590,6366
12473,6192
12299,6076
12279,6072
12299,6068
12473,5952
12590,5777
12630,5572
12590,5366
12473,5192
12299,5076
12279,5072
12299,5068
12473,4952
12590,4777
12630,4572
12590,4366
12473,4192
12320,4090
12385,4066
12551,3912
12641,3722
12598,3633
12082,3633
12082,3640
11961,3640
11961,3633
11446,3633
11402,3722
11493,3912
11659,4066
11724,4090
11571,4192
11454,4366
11413,4572
11454,4777
11571,4952
11745,5068
11765,5072
11745,5076
11643,5144
10508,4009
10538,4003
10605,3960
10650,3894
10666,3816
10666,3029
10652,2956
10609,2889
10543,2844
10465,2829
9678,2829
9605,2842
9538,2885
9493,2951
9478,3029
9478,3816
9491,3889
9534,3956
9600,4001
9678,4017
9832,4017
9835,4032
9891,4115
11430,5654
11454,5777
11571,5952
11745,6068
11765,6072
11745,6076
11571,6192
11454,6366
11413,6572
11454,6777
11571,6952
11745,7068
11765,7072
11745,7076
11571,7192
11454,7366
11413,7572
11454,7777
11571,7952
11745,8068
11765,8072
11745,8076
11571,8192
11488,8316
11301,8316
11297,8310
11013,8026
11013,7687
10999,7614
10956,7547
10890,7502
10812,7486
10332,7486
10259,7500
10192,7543
10147,7608
10131,7687
10131,8045
10145,8118
10188,8185
10254,8230
10274,8234
10243,8240
10176,8283
10131,8349
10115,8427
10115,9017
10129,9090
10172,9157
10238,9202
10316,9218
10828,9218
10901,9204
10968,9161
11013,9095
11028,9017
11028,8965
11047,8962
11064,8958
11147,8903
11222,8828
11488,8828
11571,8952
11745,9068
11765,9072
11745,9076
11571,9192
11454,9366
11413,9572
11454,9777
11571,9952
11745,10068
11765,10072
11745,10076
11571,10192
11454,10366
11413,10572
11454,10777
11571,10952
11745,11068
11765,11072
11745,11076
11571,11192
11454,11366
11413,11572
11454,11777
11571,11952
11745,12068
11765,12072
11745,12076
11571,12192
11454,12366
11413,12572
11454,12777
11571,12952
11745,13068
11765,13072
11745,13076
11571,13192
11454,13366
11413,13572
11454,13777
11571,13952
11745,14068
11765,14072
11745,14076
11571,14192
11454,14366
11413,14572
11454,14777
11571,14952
11745,15068
11765,15072
11745,15076
11571,15192
11454,15366
11413,15572
11454,15777
11571,15952
11745,16068
11765,16072
11745,16076
11571,16192
11454,16366
11413,16572
11454,16777
11571,16952
11745,17068
11765,17072
11745,17076
11571,17192
11454,17366
11413,17572
11454,17777
11571,17952
11745,18068
11765,18072
11745,18076
11571,18192
11537,18243
8727,15434
8727,13715
8764,13691
8853,13557
8885,13398
8885,12992
9165,12992
9248,12976
9263,12973
9346,12917
9656,12608
9682,12649
9748,12694
9826,12710
10318,12710
10391,12696
10458,12653
10503,12587
10519,12509
10519,12470
11064,12470
11146,12454
11162,12450
11245,12395
11253,12387
11308,12304
11311,12288
11328,12206
11328,10722
11308,10624
11308,10624
11253,10541
10948,10237
10968,10224
11013,10158
11028,10080
11028,9490
11015,9417
10972,9350
10906,9305
10828,9289
10316,9289
10243,9303
10176,9346
10131,9412
10115,9490
10115,10080
10129,10153
10172,10220
10238,10265
10316,10281
10328,10281
10328,10285
10335,10320
10391,10403
10816,10828
10816,11958
10519,11958
10519,11919
10505,11846
10462,11779
10412,11745
10453,11728
10521,11661
10557,11573
10557,11350
10497,11290
10132,11290
10132,11298
10011,11298
10011,11290
9646,11290
9586,11350
9586,11573
9623,11661
9690,11728
9732,11745
9686,11775
9641,11841
9625,11919
9625,11971
9608,11974
9590,11978
9507,12033
9059,12481
8693,12481
8630,12438
8625,12437
7075,10887
9586,10887
9586,11109
9646,11169
10011,11169
10011,10755
10132,10755
10132,11169
10497,11169
10557,11109
10557,10887
10521,10799
10453,10732
10365,10695
10192,10695
10132,10755
10011,10755
9951,10695
9778,10695
9690,10732
9623,10799
9586,10887
7075,10887
6804,10616
6804,10291
6808,10285
6815,10252
6815,10249
6828,10249
6901,10236
6968,10193
7013,10127
7028,10049
7028,9874
7077,9874
7077,10096
7113,10184
7180,10252
7268,10288
7451,10288
7511,10228
7511,9814
7632,9814
7632,10228
7692,10288
7875,10288
7963,10252
8031,10184
8067,10096
8067,9874
8007,9814
7632,9814
7511,9814
7136,9814
7077,9874
7028,9874
7028,9458
7019,9411
7077,9411
7077,9633
7136,9693
7511,9693
7511,9279
7632,9279
7632,9693
8007,9693
8067,9633
8067,9411
8031,9323
7963,9255
7875,9219
7692,9219
7632,9279
7511,9279
7451,9219
7268,9219
7180,9255
7113,9323
7077,9411
7019,9411
7015,9385
6972,9318
6906,9273
6828,9257
6316,9257
6243,9271
6176,9314
6131,9380
6115,9458
6115,10049
6129,10122
6172,10189
6238,10234
6292,10245
6292,10466
6099,10466
6086,10393
6042,10326
5977,10281
5899,10265
5308,10265
5235,10279
5168,10322
5123,10388
5107,10466
5107,10978
5121,11051
5164,11118
5230,11163
5308,11179
5899,11179
5972,11165
6039,11122
6083,11056
6099,10978
6442,10978
8104,12640
8090,12662
8078,12721
8066,12662
7976,12528
7842,12438
7684,12407
7526,12438
7392,12528
7302,12662
7290,12721
7279,12662
7189,12528
7055,12438
6897,12407
6738,12438
6604,12528
6515,12662
6503,12721
6491,12662
6402,12528
6267,12438
6109,12407
5951,12438
5817,12528
5727,12662
5716,12721
5704,12662
5614,12528
5480,12438
5322,12407
5164,12438
5030,12528
4940,12662
4928,12721
4916,12662
4827,12528
4790,12504
4790,11179
4836,11179
4909,11165
4976,11122
5020,11056
5036,10978
5036,10466
5023,10393
4979,10326
4914,10281
4836,10265
4245,10265
4172,10279
4105,10322
4060,10388
4044,10466
4044,10978
4058,11051
4101,11118
4167,11163
4245,11179
4279,11179
4279,11360
4231,11329
4141,11311
3951,11311
3636,10996
3567,10949
3567,10811
3507,10751
3132,10751
3132,10759
3011,10759
3011,10751
3003,10751
3003,10630
3011,10630
3011,10216
3132,10216
3132,10630
3507,10630
3567,10570
3567,10348
3531,10260
3463,10192
3375,10156
3192,10156
3132,10216
3011,10216
3011,10215
4701,8525
4753,8448
4771,8358
4771,7665
4827,7628
4916,7494
4928,7434
4940,7494
5030,7628
5164,7717
5322,7749
5480,7717
5614,7628
5704,7494
5716,7434
5727,7494
5817,7628
5951,7717
6109,7749
6267,7717
6402,7628
6491,7494
6503,7434
6515,7494
6604,7628
6641,7652
6641,7826
6391,8076
6335,8159
6335,8159
6328,8194
6316,8194
6243,8208
6176,8251
6131,8317
6115,8395
6115,8986
6129,9059
6172,9126
6238,9171
6316,9186
6828,9186
6901,9173
6968,9130
7013,9064
7028,8986
7028,8395
7015,8322
6972,8255
6950,8241
7078,8113
7133,8030
7139,8002
7153,7932
7153,7652
7189,7628
7279,7494
7286,7454
7302,7533
7392,7667
7428,7691
7428,8039
7391,8076
7335,8159
7335,8159
7328,8194
7316,8194
7243,8208
7176,8251
7131,8317
7115,8395
7115,8986
7129,9059
7172,9126
7238,9171
7316,9186
7828,9186
7901,9173
7968,9130
8013,9064
8028,8986
8028,8395
8015,8322
7972,8255
7924,8223
7940,8145
7940,7691
7976,7667
8066,7533
8066,7531
8073,7552
8192,7687
8341,7759
8411,7713
8411,7107
8532,7107
8532,7713
8602,7759
8751,7687
8869,7552
8927,7383
8927,7107
8532,7107
8411,7107
8403,7107
8403,6986
8411,6986
8411,6379
8532,6379
8532,6986
8927,6986
8927,6710
8869,6540
8751,6406
8602,6334
8532,6379
8411,6379
8341,6334
8192,6406
8073,6540
8049,6613
7976,6504
7842,6415
7684,6383
7526,6415
7392,6504
7302,6638
7294,6678
7279,6599
7189,6465
7055,6375
6897,6344
6738,6375
6604,6465
6515,6599
6503,6658
6491,6599
6402,6465
6267,6375
6109,6344
5951,6375
5817,6465
5727,6599
5716,6658
5704,6599
5614,6465
5480,6375
5322,6344
5164,6375
5030,6465
4940,6599
4928,6658
4916,6599
4827,6465
4745,6410
4772,6410
4854,6394
4870,6391
4953,6335
5310,5978
6985,5978
7067,5962
7083,5958
7166,5903
8253,4816
8308,4733
8308,4733
8311,4718
8328,4718
8401,4704
8468,4661
8513,4595
8528,4517
8528,3927
8515,3854
8472,3787
8406,3742
8328,3726
7816,3726
7743,3740
7676,3783
7631,3849
7615,3927
7615,4517
7629,4590
7672,4657
7682,4664
6879,5466
5204,5466
5173,5472
5178,5447
5178,4372
5158,4274
5140,4246
5103,4191
4953,4041
4870,3986
4854,3982
4772,3966
4562,3966
4559,3949
4516,3882
4450,3837
4372,3821
3572,3821
3499,3835
3432,3878
3387,3944
3382,3966
2528,3966
2515,3893
2472,3826
2406,3781
2328,3765
1816,3765
1743,3779
1676,3822
1631,3888
1615,3966
1519,3966
1519,3935
1505,3862
1462,3795
1396,3750
1318,3734
826,3734
798,3739
798,1387
1586,1387
1586,1609
1646,1669
2011,1669
2011,1255
2132,1255
2132,1669
2497,1669
2557,1609
2557,1387
2521,1299
2496,1274
2992,1274
2992,1601
3052,1661
3511,1661
3511,1142
3451,1083
3184,1083
3096,1119
3029,1186
2992,1274
2496,1274
2453,1232
2365,1195
2192,1195
2132,1255
2011,1255
1951,1195
1778,1195
1690,1232
1623,1299
1586,1387
798,1387
798,948
5734,948
5568,1114
" /> 
<polyline style="fill-rule:evenodd;"
points="1629,4551
1672,4618
1738,4663
1816,4679
2328,4679
2401,4665
2468,4622
2513,4556
2528,4478
3382,4478
3385,4495
3428,4562
3494,4607
3572,4623
4372,4623
4445,4609
4512,4566
4557,4500
4561,4478
4666,4478
4666,4478
4666,5341
4593,5414
4611,5370
4611,5242
4551,5183
4032,5183
4032,5190
3911,5190
3911,5183
3392,5183
3332,5242
3332,5370
3367,5453
2947,5453
2865,5470
2849,5473
2766,5528
1998,6296
1972,6255
1906,6210
1828,6194
1316,6194
1243,6208
1176,6251
1131,6317
1115,6395
1115,6825
1057,6883
798,6883
798,5749
951,5749
1011,5689
1011,5275
1132,5275
1132,5689
1192,5749
1365,5749
1453,5712
1521,5645
1556,5561
1803,5561
1826,5647
2014,5708
2210,5692
2317,5647
2341,5561
2072,5292
1803,5561
1556,5561
1557,5557
1557,5335
1497,5275
1132,5275
1011,5275
1003,5275
1003,5153
1011,5153
1011,5146
1132,5146
1132,5153
1497,5153
1503,5148
1570,5148
1586,5345
1631,5452
1717,5475
1986,5206
2158,5206
2427,5475
2513,5452
2573,5264
2557,5068
2513,4961
2427,4937
2158,5206
1986,5206
1717,4937
1631,4961
1570,5148
1503,5148
1557,5094
1557,4871
1549,4851
1803,4851
2072,5120
2318,4874
3332,4874
3332,5001
3392,5061
3911,5061
3911,4742
4032,4742
4032,5061
4551,5061
4611,5001
4611,4874
4575,4786
4507,4719
4419,4683
4092,4683
4032,4742
3911,4742
3851,4683
3524,4683
3436,4719
3369,4786
3332,4874
2318,4874
2341,4851
2317,4765
2130,4705
1934,4721
1826,4765
1803,4851
1549,4851
1521,4783
1453,4716
1412,4699
1458,4669
1503,4603
1519,4525
1519,4478
1615,4478
1629,4551
" /> 
</g>
<g style="fill:#FFFFFF; fill-opacity:1.0; 
stroke:#FFFFFF; stroke-width:78.7402; stroke-opacity:1; 
stroke-linecap:round; stroke-linejoin:round;">
</g>
<g style="fill:#FFFFFF; fill-opacity:1.0; 
stroke:#FFFFFF; stroke-width:0; stroke-opacity:1; 
stroke-linecap:round; stroke-linejoin:round;">
<circle cx="2072.32" cy="4222.44" r="157.48" /> 
</g>
<g style="fill:#FFFFFF; fill-opacity:1.0; 
stroke:#FFFFFF; stroke-width:39.3701; stroke-opacity:1; 
stroke-linecap:round; stroke-linejoin:round;">
</g>
<g style="fill:#FFFFFF; fill-opacity:1.0; 
stroke:#FFFFFF; stroke-width:0; stroke-opacity:1; 
stroke-linecap:round; stroke-linejoin:round;">
<circle cx="2072.32" cy="5206.69" r="157.48" /> 
</g>
<g style="fill:#FFFFFF; fill-opacity:1.0; 
stroke:#FFFFFF; stroke-width:39.3701; stroke-opacity:1; 
stroke-linecap:round; stroke-linejoin:round;">
</g>
<g style="fill:#FFFFFF; fill-opacity:1.0; 
stroke:#FFFFFF; stroke-width:0; stroke-opacity:1; 
stroke-linecap:round; stroke-linejoin:round;">
<circle cx="10072.3" cy="1923.23" r="250" /> 
</g>
<g style="fill:#FFFFFF; fill-opacity:1.0; 
stroke:#FFFFFF; stroke-width:39.3701; stroke-opacity:1; 
stroke-linecap:round; stroke-linejoin:round;">
</g>
<g style="fill:#FFFFFF; fill-opacity:1.0; 
stroke:#FFFFFF; stroke-width:0; stroke-opacity:1; 
stroke-linecap:round; stroke-linejoin:round;">
<circle cx="10072.3" cy="3423.23" r="197" /> 
</g>
<g style="fill:#FFFFFF; fill-opacity:1.0; 
stroke:#FFFFFF; stroke-width:39.3701; stroke-opacity:1; 
stroke-linecap:round; stroke-linejoin:round;">
</g>
<g style="fill:#FFFFFF; fill-opacity:1.0; 
stroke:#FFFFFF; stroke-width:0; stroke-opacity:1; 
stroke-linecap:round; stroke-linejoin:round;">
<circle cx="5572.32" cy="19222.4" r="197" /> 
</g>
<g style="fill:#FFFFFF; fill-opacity:1.0; 
stroke:#FFFFFF; stroke-width:39.3701; stroke-opacity:1; 
stroke-linecap:round; stroke-linejoin:round;">
</g>
<g style="fill:#FFFFFF; fill-opacity:1.0; 
stroke:#FFFFFF; stroke-width:0; stroke-opacity:1; 
stroke-linecap:round; stroke-linejoin:round;">
<circle cx="5572.32" cy="18222.4" r="197" /> 
</g>
<g style="fill:#FFFFFF; fill-opacity:1.0; 
stroke:#FFFFFF; stroke-width:39.3701; stroke-opacity:1; 
stroke-linecap:round; stroke-linejoin:round;">
</g>
<g style="fill:#FFFFFF; fill-opacity:1.0; 
stroke:#FFFFFF; stroke-width:0; stroke-opacity:1; 
stroke-linecap:round; stroke-linejoin:round;">
<circle cx="12022.3" cy="19572.4" r="200" /> 
</g>
<g style="fill:#FFFFFF; fill-opacity:1.0; 
stroke:#FFFFFF; stroke-width:39.3701; stroke-opacity:1; 
stroke-linecap:round; stroke-linejoin:round;">
</g>
<g style="fill:#FFFFFF; fill-opacity:1.0; 
stroke:#FFFFFF; stroke-width:0; stroke-opacity:1; 
stroke-linecap:round; stroke-linejoin:round;">
<circle cx="12022.3" cy="18572.4" r="200" /> 
</g>
<g style="fill:#FFFFFF; fill-opacity:1.0; 
stroke:#FFFFFF; stroke-width:39.3701; stroke-opacity:1; 
stroke-linecap:round; stroke-linejoin:round;">
</g>
<g style="fill:#FFFFFF; fill-opacity:1.0; 
stroke:#FFFFFF; stroke-width:0; stroke-opacity:1; 
stroke-linecap:round; stroke-linejoin:round;">
<circle cx="12022.3" cy="17572.4" r="200" /> 
</g>
<g style="fill:#FFFFFF; fill-opacity:1.0; 
stroke:#FFFFFF; stroke-width:39.3701; stroke-opacity:1; 
stroke-linecap:round; stroke-linejoin:round;">
</g>
<g style="fill:#FFFFFF; fill-opacity:1.0; 
stroke:#FFFFFF; stroke-width:0; stroke-opacity:1; 
stroke-linecap:round; stroke-linejoin:round;">
<circle cx="12022.3" cy="16572.4" r="200" /> 
</g>
<g style="fill:#FFFFFF; fill-opacity:1.0; 
stroke:#FFFFFF; stroke-width:39.3701; stroke-opacity:1; 
stroke-linecap:round; stroke-linejoin:round;">
</g>
<g style="fill:#FFFFFF; fill-opacity:1.0; 
stroke:#FFFFFF; stroke-width:0; stroke-opacity:1; 
stroke-linecap:round; stroke-linejoin:round;">
<circle cx="12022.3" cy="15572.4" r="200" /> 
</g>
<g style="fill:#FFFFFF; fill-opacity:1.0; 
stroke:#FFFFFF; stroke-width:39.3701; stroke-opacity:1; 
stroke-linecap:round; stroke-linejoin:round;">
</g>
<g style="fill:#FFFFFF; fill-opacity:1.0; 
stroke:#FFFFFF; stroke-width:0; stroke-opacity:1; 
stroke-linecap:round; stroke-linejoin:round;">
<circle cx="12022.3" cy="14572.4" r="200" /> 
</g>
<g style="fill:#FFFFFF; fill-opacity:1.0; 
stroke:#FFFFFF; stroke-width:39.3701; stroke-opacity:1; 
stroke-linecap:round; stroke-linejoin:round;">
</g>
<g style="fill:#FFFFFF; fill-opacity:1.0; 
stroke:#FFFFFF; stroke-width:0; stroke-opacity:1; 
stroke-linecap:round; stroke-linejoin:round;">
<circle cx="12022.3" cy="13572.4" r="200" /> 
</g>
<g style="fill:#FFFFFF; fill-opacity:1.0; 
stroke:#FFFFFF; stroke-width:39.3701; stroke-opacity:1; 
stroke-linecap:round; stroke-linejoin:round;">
</g>
<g style="fill:#FFFFFF; fill-opacity:1.0; 
stroke:#FFFFFF; stroke-width:0; stroke-opacity:1; 
stroke-linecap:round; stroke-linejoin:round;">
<circle cx="12022.3" cy="12572.4" r="200" /> 
</g>
<g style="fill:#FFFFFF; fill-opacity:1.0; 
stroke:#FFFFFF; stroke-width:39.3701; stroke-opacity:1; 
stroke-linecap:round; stroke-linejoin:round;">
</g>
<g style="fill:#FFFFFF; fill-opacity:1.0; 
stroke:#FFFFFF; stroke-width:0; stroke-opacity:1; 
stroke-linecap:round; stroke-linejoin:round;">
<circle cx="12022.3" cy="11572.4" r="200" /> 
</g>
<g style="fill:#FFFFFF; fill-opacity:1.0; 
stroke:#FFFFFF; stroke-width:39.3701; stroke-opacity:1; 
stroke-linecap:round; stroke-linejoin:round;">
</g>
<g style="fill:#FFFFFF; fill-opacity:1.0; 
stroke:#FFFFFF; stroke-width:0; stroke-opacity:1; 
stroke-linecap:round; stroke-linejoin:round;">
<circle cx="12022.3" cy="10572.4" r="200" /> 
</g>
<g style="fill:#FFFFFF; fill-opacity:1.0; 
stroke:#FFFFFF; stroke-width:39.3701; stroke-opacity:1; 
stroke-linecap:round; stroke-linejoin:round;">
</g>
<g style="fill:#FFFFFF; fill-opacity:1.0; 
stroke:#FFFFFF; stroke-width:0; stroke-opacity:1; 
stroke-linecap:round; stroke-linejoin:round;">
<circle cx="12022.3" cy="9572.44" r="200" /> 
</g>
<g style="fill:#FFFFFF; fill-opacity:1.0; 
stroke:#FFFFFF; stroke-width:39.3701; stroke-opacity:1; 
stroke-linecap:round; stroke-linejoin:round;">
</g>
<g style="fill:#FFFFFF; fill-opacity:1.0; 
stroke:#FFFFFF; stroke-width:0; stroke-opacity:1; 
stroke-linecap:round; stroke-linejoin:round;">
<circle cx="12022.3" cy="8572.44" r="200" /> 
</g>
<g style="fill:#FFFFFF; fill-opacity:1.0; 
stroke:#FFFFFF; stroke-width:39.3701; stroke-opacity:1; 
stroke-linecap:round; stroke-linejoin:round;">
</g>
<g style="fill:#FFFFFF; fill-opacity:1.0; 
stroke:#FFFFFF; stroke-width:0; stroke-opacity:1; 
stroke-linecap:round; stroke-linejoin:round;">
<circle cx="12022.3" cy="7572.44" r="200" /> 
</g>
<g style="fill:#FFFFFF; fill-opacity:1.0; 
stroke:#FFFFFF; stroke-width:39.3701; stroke-opacity:1; 
stroke-linecap:round; stroke-linejoin:round;">
</g>
<g style="fill:#FFFFFF; fill-opacity:1.0; 
stroke:#FFFFFF; stroke-width:0; stroke-opacity:1; 
stroke-linecap:round; stroke-linejoin:round;">
<circle cx="12022.3" cy="6572.44" r="200" /> 
</g>
<g style="fill:#FFFFFF; fill-opacity:1.0; 
stroke:#FFFFFF; stroke-width:39.3701; stroke-opacity:1; 
stroke-linecap:round; stroke-linejoin:round;">
</g>
<g style="fill:#FFFFFF; fill-opacity:1.0; 
stroke:#FFFFFF; stroke-width:0; stroke-opacity:1; 
stroke-linecap:round; stroke-linejoin:round;">
<circle cx="12022.3" cy="5572.44" r="200" /> 
</g>
<g style="fill:#FFFFFF; fill-opacity:1.0; 
stroke:#FFFFFF; stroke-width:39.3701; stroke-opacity:1; 
stroke-linecap:round; stroke-linejoin:round;">
</g>
<g style="fill:#FFFFFF; fill-opacity:1.0; 
stroke:#FFFFFF; stroke-width:0; stroke-opacity:1; 
stroke-linecap:round; stroke-linejoin:round;">
<circle cx="12022.3" cy="4572.44" r="200" /> 
</g>
<g style="fill:#FFFFFF; fill-opacity:1.0; 
stroke:#FFFFFF; stroke-width:39.3701; stroke-opacity:1; 
stroke-linecap:round; stroke-linejoin:round;">
</g>
<g style="fill:#FFFFFF; fill-opacity:1.0; 
stroke:#FFFFFF; stroke-width:0; stroke-opacity:1; 
stroke-linecap:round; stroke-linejoin:round;">
<circle cx="12022.3" cy="3572.44" r="200" /> 
</g>
<g style="fill:#FFFFFF; fill-opacity:1.0; 
stroke:#FFFFFF; stroke-width:39.3701; stroke-opacity:1; 
stroke-linecap:round; stroke-linejoin:round;">
</g>
<g style="fill:#FFFFFF; fill-opacity:1.0; 
stroke:#FFFFFF; stroke-width:0; stroke-opacity:1; 
stroke-linecap:round; stroke-linejoin:round;">
<circle cx="12022.3" cy="2572.44" r="200" /> 
</g>
<g style="fill:#FFFFFF; fill-opacity:1.0; 
stroke:#FFFFFF; stroke-width:39.3701; stroke-opacity:1; 
stroke-linecap:round; stroke-linejoin:round;">
</g>
<g style="fill:#FFFFFF; fill-opacity:1.0; 
stroke:#FFFFFF; stroke-width:0; stroke-opacity:1; 
stroke-linecap:round; stroke-linejoin:round;">
<circle cx="12022.3" cy="1572.44" r="200" /> 
</g>
<g style="fill:#FFFFFF; fill-opacity:1.0; 
stroke:#FFFFFF; stroke-width:39.3701; stroke-opacity:1; 
stroke-linecap:round; stroke-linejoin:round;">
</g>
<g style="fill:#FFFFFF; fill-opacity:1.0; 
stroke:#FFFFFF; stroke-width:0; stroke-opacity:1; 
stroke-linecap:round; stroke-linejoin:round;">
<circle cx="8072.32" cy="18222.4" r="200" /> 
</g>
<g style="fill:#FFFFFF; fill-opacity:1.0; 
stroke:#FFFFFF; stroke-width:39.3701; stroke-opacity:1; 
stroke-linecap:round; stroke-linejoin:round;">
</g>
<g style="fill:#FFFFFF; fill-opacity:1.0; 
stroke:#FFFFFF; stroke-width:0; stroke-opacity:1; 
stroke-linecap:round; stroke-linejoin:round;">
<circle cx="8072.32" cy="19222.4" r="200" /> 
</g>
<g style="fill:#FFFFFF; fill-opacity:1.0; 
stroke:#FFFFFF; stroke-width:39.3701; stroke-opacity:1; 
stroke-linecap:round; stroke-linejoin:round;">
</g>
<g style="fill:#FFFFFF; fill-opacity:1.0; 
stroke:#FFFFFF; stroke-width:0; stroke-opacity:1; 
stroke-linecap:round; stroke-linejoin:round;">
<circle cx="4072.32" cy="17222.4" r="160" /> 
</g>
<g style="fill:#FFFFFF; fill-opacity:1.0; 
stroke:#FFFFFF; stroke-width:39.3701; stroke-opacity:1; 
stroke-linecap:round; stroke-linejoin:round;">
</g>
<g style="fill:#FFFFFF; fill-opacity:1.0; 
stroke:#FFFFFF; stroke-width:0; stroke-opacity:1; 
stroke-linecap:round; stroke-linejoin:round;">
<circle cx="4072.32" cy="19222.4" r="160" /> 
</g>
<g style="fill:#FFFFFF; fill-opacity:1.0; 
stroke:#FFFFFF; stroke-width:39.3701; stroke-opacity:1; 
stroke-linecap:round; stroke-linejoin:round;">
</g>
<g style="fill:#FFFFFF; fill-opacity:1.0; 
stroke:#FFFFFF; stroke-width:0; stroke-opacity:1; 
stroke-linecap:round; stroke-linejoin:round;">
<circle cx="1072.32" cy="17222.4" r="160" /> 
</g>
<g style="fill:#FFFFFF; fill-opacity:1.0; 
stroke:#FFFFFF; stroke-width:39.3701; stroke-opacity:1; 
stroke-linecap:round; stroke-linejoin:round;">
</g>
<g style="fill:#FFFFFF; fill-opacity:1.0; 
stroke:#FFFFFF; stroke-width:0; stroke-opacity:1; 
stroke-linecap:round; stroke-linejoin:round;">
<circle cx="1072.32" cy="19222.4" r="160" /> 
</g>
<g style="fill:#FFFFFF; fill-opacity:1.0; 
stroke:#FFFFFF; stroke-width:39.3701; stroke-opacity:1; 
stroke-linecap:round; stroke-linejoin:round;">
</g>
<g style="fill:#FFFFFF; fill-opacity:1.0; 
stroke:#FFFFFF; stroke-width:0; stroke-opacity:1; 
stroke-linecap:round; stroke-linejoin:round;">
<circle cx="2960.12" cy="12834.3" r="127.953" /> 
</g>
<g style="fill:#FFFFFF; fill-opacity:1.0; 
stroke:#FFFFFF; stroke-width:39.3701; stroke-opacity:1; 
stroke-linecap:round; stroke-linejoin:round;">
</g>
<g style="fill:#FFFFFF; fill-opacity:1.0; 
stroke:#FFFFFF; stroke-width:0; stroke-opacity:1; 
stroke-linecap:round; stroke-linejoin:round;">
<circle cx="3747.52" cy="12834.3" r="127.953" /> 
</g>
<g style="fill:#FFFFFF; fill-opacity:1.0; 
stroke:#FFFFFF; stroke-width:39.3701; stroke-opacity:1; 
stroke-linecap:round; stroke-linejoin:round;">
</g>
<g style="fill:#FFFFFF; fill-opacity:1.0; 
stroke:#FFFFFF; stroke-width:0; stroke-opacity:1; 
stroke-linecap:round; stroke-linejoin:round;">
<circle cx="4534.92" cy="12834.3" r="127.953" /> 
</g>
<g style="fill:#FFFFFF; fill-opacity:1.0; 
stroke:#FFFFFF; stroke-width:39.3701; stroke-opacity:1; 
stroke-linecap:round; stroke-linejoin:round;">
</g>
<g style="fill:#FFFFFF; fill-opacity:1.0; 
stroke:#FFFFFF; stroke-width:0; stroke-opacity:1; 
stroke-linecap:round; stroke-linejoin:round;">
<circle cx="5322.32" cy="12834.3" r="127.953" /> 
</g>
<g style="fill:#FFFFFF; fill-opacity:1.0; 
stroke:#FFFFFF; stroke-width:39.3701; stroke-opacity:1; 
stroke-linecap:round; stroke-linejoin:round;">
</g>
<g style="fill:#FFFFFF; fill-opacity:1.0; 
stroke:#FFFFFF; stroke-width:0; stroke-opacity:1; 
stroke-linecap:round; stroke-linejoin:round;">
<circle cx="6109.72" cy="12834.3" r="127.953" /> 
</g>
<g style="fill:#FFFFFF; fill-opacity:1.0; 
stroke:#FFFFFF; stroke-width:39.3701; stroke-opacity:1; 
stroke-linecap:round; stroke-linejoin:round;">
</g>
<g style="fill:#FFFFFF; fill-opacity:1.0; 
stroke:#FFFFFF; stroke-width:0; stroke-opacity:1; 
stroke-linecap:round; stroke-linejoin:round;">
<circle cx="6897.13" cy="12834.3" r="127.953" /> 
</g>
<g style="fill:#FFFFFF; fill-opacity:1.0; 
stroke:#FFFFFF; stroke-width:39.3701; stroke-opacity:1; 
stroke-linecap:round; stroke-linejoin:round;">
</g>
<g style="fill:#FFFFFF; fill-opacity:1.0; 
stroke:#FFFFFF; stroke-width:0; stroke-opacity:1; 
stroke-linecap:round; stroke-linejoin:round;">
<circle cx="7684.53" cy="12834.3" r="127.953" /> 
</g>
<g style="fill:#FFFFFF; fill-opacity:1.0; 
stroke:#FFFFFF; stroke-width:39.3701; stroke-opacity:1; 
stroke-linecap:round; stroke-linejoin:round;">
</g>
<g style="fill:#FFFFFF; fill-opacity:1.0; 
stroke:#FFFFFF; stroke-width:0; stroke-opacity:1; 
stroke-linecap:round; stroke-linejoin:round;">
<circle cx="8471.93" cy="12834.3" r="127.953" /> 
</g>
<g style="fill:#FFFFFF; fill-opacity:1.0; 
stroke:#FFFFFF; stroke-width:39.3701; stroke-opacity:1; 
stroke-linecap:round; stroke-linejoin:round;">
</g>
<g style="fill:#FFFFFF; fill-opacity:1.0; 
stroke:#FFFFFF; stroke-width:0; stroke-opacity:1; 
stroke-linecap:round; stroke-linejoin:round;">
<circle cx="8471.93" cy="7322.44" r="127.953" /> 
</g>
<g style="fill:#FFFFFF; fill-opacity:1.0; 
stroke:#FFFFFF; stroke-width:39.3701; stroke-opacity:1; 
stroke-linecap:round; stroke-linejoin:round;">
</g>
<g style="fill:#FFFFFF; fill-opacity:1.0; 
stroke:#FFFFFF; stroke-width:0; stroke-opacity:1; 
stroke-linecap:round; stroke-linejoin:round;">
<circle cx="7684.53" cy="7322.44" r="127.953" /> 
</g>
<g style="fill:#FFFFFF; fill-opacity:1.0; 
stroke:#FFFFFF; stroke-width:39.3701; stroke-opacity:1; 
stroke-linecap:round; stroke-linejoin:round;">
</g>
<g style="fill:#FFFFFF; fill-opacity:1.0; 
stroke:#FFFFFF; stroke-width:0; stroke-opacity:1; 
stroke-linecap:round; stroke-linejoin:round;">
<circle cx="6897.13" cy="7322.44" r="127.953" /> 
</g>
<g style="fill:#FFFFFF; fill-opacity:1.0; 
stroke:#FFFFFF; stroke-width:39.3701; stroke-opacity:1; 
stroke-linecap:round; stroke-linejoin:round;">
</g>
<g style="fill:#FFFFFF; fill-opacity:1.0; 
stroke:#FFFFFF; stroke-width:0; stroke-opacity:1; 
stroke-linecap:round; stroke-linejoin:round;">
<circle cx="6109.72" cy="7322.44" r="127.953" /> 
</g>
<g style="fill:#FFFFFF; fill-opacity:1.0; 
stroke:#FFFFFF; stroke-width:39.3701; stroke-opacity:1; 
stroke-linecap:round; stroke-linejoin:round;">
</g>
<g style="fill:#FFFFFF; fill-opacity:1.0; 
stroke:#FFFFFF; stroke-width:0; stroke-opacity:1; 
stroke-linecap:round; stroke-linejoin:round;">
<circle cx="5322.32" cy="7322.44" r="127.953" /> 
</g>
<g style="fill:#FFFFFF; fill-opacity:1.0; 
stroke:#FFFFFF; stroke-width:39.3701; stroke-opacity:1; 
stroke-linecap:round; stroke-linejoin:round;">
</g>
<g style="fill:#FFFFFF; fill-opacity:1.0; 
stroke:#FFFFFF; stroke-width:0; stroke-opacity:1; 
stroke-linecap:round; stroke-linejoin:round;">
<circle cx="4534.92" cy="7322.44" r="127.953" /> 
</g>
<g style="fill:#FFFFFF; fill-opacity:1.0; 
stroke:#FFFFFF; stroke-width:39.3701; stroke-opacity:1; 
stroke-linecap:round; stroke-linejoin:round;">
</g>
<g style="fill:#FFFFFF; fill-opacity:1.0; 
stroke:#FFFFFF; stroke-width:0; stroke-opacity:1; 
stroke-linecap:round; stroke-linejoin:round;">
<circle cx="3747.52" cy="7322.44" r="127.953" /> 
</g>
<g style="fill:#FFFFFF; fill-opacity:1.0; 
stroke:#FFFFFF; stroke-width:39.3701; stroke-opacity:1; 
stroke-linecap:round; stroke-linejoin:round;">
</g>
<g style="fill:#FFFFFF; fill-opacity:1.0; 
stroke:#FFFFFF; stroke-width:0; stroke-opacity:1; 
stroke-linecap:round; stroke-linejoin:round;">
<circle cx="2960.12" cy="7322.44" r="127.953" /> 
</g>
<g style="fill:#FFFFFF; fill-opacity:1.0; 
stroke:#FFFFFF; stroke-width:39.3701; stroke-opacity:1; 
stroke-linecap:round; stroke-linejoin:round;">
</g>
<g style="fill:#FFFFFF; fill-opacity:1.0; 
stroke:#FFFFFF; stroke-width:0; stroke-opacity:1; 
stroke-linecap:round; stroke-linejoin:round;">
<circle cx="3572.32" cy="1722.44" r="200" /> 
</g>
<g style="fill:#FFFFFF; fill-opacity:1.0; 
stroke:#FFFFFF; stroke-width:39.3701; stroke-opacity:1; 
stroke-linecap:round; stroke-linejoin:round;">
</g>
<g style="fill:#FFFFFF; fill-opacity:1.0; 
stroke:#FFFFFF; stroke-width:0; stroke-opacity:1; 
stroke-linecap:round; stroke-linejoin:round;">
<circle cx="4572.32" cy="1722.44" r="200" /> 
</g>
<g style="fill:#FFFFFF; fill-opacity:1.0; 
stroke:#FFFFFF; stroke-width:39.3701; stroke-opacity:1; 
stroke-linecap:round; stroke-linejoin:round;">
</g>
<g style="fill:#FFFFFF; fill-opacity:1.0; 
stroke:#FFFFFF; stroke-width:0; stroke-opacity:1; 
stroke-linecap:round; stroke-linejoin:round;">
<circle cx="5572.32" cy="1722.44" r="200" /> 
</g>
<g style="fill:#FFFFFF; fill-opacity:1.0; 
stroke:#FFFFFF; stroke-width:39.3701; stroke-opacity:1; 
stroke-linecap:round; stroke-linejoin:round;">
</g>
<g style="fill:#FFFFFF; fill-opacity:1.0; 
stroke:#FFFFFF; stroke-width:0; stroke-opacity:1; 
stroke-linecap:round; stroke-linejoin:round;">
<circle cx="6572.32" cy="1722.44" r="200" /> 
</g>
<g style="fill:#FFFFFF; fill-opacity:1.0; 
stroke:#FFFFFF; stroke-width:39.3701; stroke-opacity:1; 
stroke-linecap:round; stroke-linejoin:round;">
</g>
<g style="fill:#FFFFFF; fill-opacity:1.0; 
stroke:#FFFFFF; stroke-width:0; stroke-opacity:1; 
stroke-linecap:round; stroke-linejoin:round;">
<circle cx="7572.32" cy="1722.44" r="200" /> 
</g>
<g style="fill:#FFFFFF; fill-opacity:1.0; 
stroke:#FFFFFF; stroke-width:39.3701; stroke-opacity:1; 
stroke-linecap:round; stroke-linejoin:round;">
</g>
<g style="fill:#FFFFFF; fill-opacity:1.0; 
stroke:#FFFFFF; stroke-width:0; stroke-opacity:1; 
stroke-linecap:round; stroke-linejoin:round;">
<circle cx="8572.32" cy="1722.44" r="200" /> 
</g>
<g style="fill:#FFFFFF; fill-opacity:1.0; 
stroke:#FFFFFF; stroke-width:39.3701; stroke-opacity:1; 
stroke-linecap:round; stroke-linejoin:round;">
</g>
<g style="fill:#000000; fill-opacity:1.0; 
stroke:#000000; stroke-width:39.3701; stroke-opacity:1; 
stroke-linecap:round; stroke-linejoin:round;">
</g>
<g style="fill:#000000; fill-opacity:1.0; 
stroke:#000000; stroke-width:59.0551; stroke-opacity:1; 
stroke-linecap:round; stroke-linejoin:round;">
</g>
<g style="fill:#000000; fill-opacity:0.0; 
stroke:#000000; stroke-width:59.0551; stroke-opacity:1; 
stroke-linecap:round; stroke-linejoin:round;">
<path d="M572 722
L13072 722
" />
<path d="M572 10222
L572 722
" />
<path d="M572 20222
L572 10222
" />
<path d="M13072 20222
L572 20222
" />
<path d="M13072 722
L13072 20222
" />
</g> 
</svg>
