<?xml version="1.0" standalone="no"?>
 <!DOCTYPE svg PUBLIC "-//W3C//DTD SVG 1.1//EN" 
 "http://www.w3.org/Graphics/SVG/1.1/DTD/svg11.dtd"> 
<svg xmlns="http://www.w3.org/2000/svg" version="1.1" 
    width="4.50088cm" height="5.91312cm" viewBox="0 0 17720 23280 ">
<title>SVG Picture created as ESP07-Breakout-brd.svg date 2016/01/05 17:37:47 </title>
  <desc>Picture generated by PCBNEW </desc>
<g style="fill:#000000; fill-opacity:1;stroke:#000000; stroke-opacity:1;
stroke-linecap:round; stroke-linejoin:round; "
 transform="translate(0 0) scale(1 1)">
</g>
<g style="fill:#000000; fill-opacity:0.0; 
stroke:#000000; stroke-width:-0.000393701; stroke-opacity:1; 
stroke-linecap:round; stroke-linejoin:round;">
</g>
<g style="fill:#000000; fill-opacity:0.0; 
stroke:#000000; stroke-width:118.11; stroke-opacity:1; 
stroke-linecap:round; stroke-linejoin:round;">
<path d="M16771 15520
L16771 15183
" />
<path d="M16180 15352
L16771 15352
" />
<path d="M16771 14873
L16771 14761
L16742 14705
L16686 14649
L16574 14620
L16377 14620
L16264 14649
L16208 14705
L16180 14761
L16180 14873
L16208 14930
L16264 14986
L16377 15014
L16574 15014
L16686 14986
L16742 14930
L16771 14873
" />
<path d="M16180 14367
L16771 14367
L16771 14142
L16742 14086
L16714 14058
L16658 14030
L16574 14030
L16517 14058
L16489 14086
L16461 14142
L16461 14367
" />
</g>
<g style="fill:#000000; fill-opacity:0.0; 
stroke:#000000; stroke-width:0; stroke-opacity:1; 
stroke-linecap:round; stroke-linejoin:round;">
</g>
<g style="fill:#000000; fill-opacity:1.0; 
stroke:#000000; stroke-width:0; stroke-opacity:1; 
stroke-linecap:round; stroke-linejoin:round;">
<polyline style="fill-rule:evenodd;"
points="15903,3966
15391,3966
15391,4478
15903,4478
15903,3966
" /> 
<circle cx="15647.7" cy="5206.69" r="255.906" /> 
</g>
<g style="fill:#000000; fill-opacity:1.0; 
stroke:#000000; stroke-width:39.3701; stroke-opacity:1; 
stroke-linecap:round; stroke-linejoin:round;">
</g>
<g style="fill:#000000; fill-opacity:1.0; 
stroke:#000000; stroke-width:0; stroke-opacity:1; 
stroke-linecap:round; stroke-linejoin:round;">
<circle cx="7647.68" cy="1923.23" r="393.5" /> 
</g>
<g style="fill:#000000; fill-opacity:1.0; 
stroke:#000000; stroke-width:39.3701; stroke-opacity:1; 
stroke-linecap:round; stroke-linejoin:round;">
</g>
<g style="fill:#000000; fill-opacity:1.0; 
stroke:#000000; stroke-width:0; stroke-opacity:1; 
stroke-linecap:round; stroke-linejoin:round;">
<polyline style="fill-rule:evenodd;"
points="7254,3816
8041,3816
8041,3029
7254,3029
7254,3816
" /> 
<polyline style="fill-rule:evenodd;"
points="11753,18828
11753,19616
12541,19616
12541,18828
11753,18828
" /> 
<circle cx="12147.7" cy="18222.4" r="393.701" /> 
</g>
<g style="fill:#000000; fill-opacity:1.0; 
stroke:#000000; stroke-width:39.3701; stroke-opacity:1; 
stroke-linecap:round; stroke-linejoin:round;">
</g>
<g style="fill:#000000; fill-opacity:1.0; 
stroke:#000000; stroke-width:0; stroke-opacity:1; 
stroke-linecap:round; stroke-linejoin:round;">
<polyline style="fill-rule:evenodd;"
points="5297,19232
5297,19912
6097,19912
6097,19232
5297,19232
" /> 
</g>
<g style="fill:#000000; fill-opacity:1.0; 
stroke:#000000; stroke-width:680; stroke-opacity:1; 
stroke-linecap:round; stroke-linejoin:round;">
</g>
<g style="fill:#000000; fill-opacity:0.0; 
stroke:#000000; stroke-width:680; stroke-opacity:1; 
stroke-linecap:round; stroke-linejoin:round;">
<path d="M5637 18572
L5757 18572
" />
<path d="M5637 17572
L5757 17572
" />
<path d="M5637 16572
L5757 16572
" />
<path d="M5637 15572
L5757 15572
" />
<path d="M5637 14572
L5757 14572
" />
<path d="M5637 13572
L5757 13572
" />
<path d="M5637 12572
L5757 12572
" />
<path d="M5637 11572
L5757 11572
" />
<path d="M5637 10572
L5757 10572
" />
<path d="M5637 9572
L5757 9572
" />
<path d="M5637 8572
L5757 8572
" />
<path d="M5637 7572
L5757 7572
" />
<path d="M5637 6572
L5757 6572
" />
<path d="M5637 5572
L5757 5572
" />
<path d="M5637 4572
L5757 4572
" />
<path d="M5637 3572
L5757 3572
" />
<path d="M5637 2572
L5757 2572
" />
<path d="M5637 1572
L5757 1572
" />
</g>
<g style="fill:#000000; fill-opacity:0.0; 
stroke:#000000; stroke-width:0; stroke-opacity:1; 
stroke-linecap:round; stroke-linejoin:round;">
</g>
<g style="fill:#000000; fill-opacity:1.0; 
stroke:#000000; stroke-width:0; stroke-opacity:1; 
stroke-linecap:round; stroke-linejoin:round;">
<polyline style="fill-rule:evenodd;"
points="10047,18622
10047,17822
9247,17822
9247,18622
10047,18622
" /> 
</g>
<g style="fill:#000000; fill-opacity:1.0; 
stroke:#000000; stroke-width:800; stroke-opacity:1; 
stroke-linecap:round; stroke-linejoin:round;">
</g>
<g style="fill:#000000; fill-opacity:0.0; 
stroke:#000000; stroke-width:800; stroke-opacity:1; 
stroke-linecap:round; stroke-linejoin:round;">
<path d="M9647 19222
L9647 19222
" />
</g>
<g style="fill:#000000; fill-opacity:0.0; 
stroke:#000000; stroke-width:0; stroke-opacity:1; 
stroke-linecap:round; stroke-linejoin:round;">
</g>
<g style="fill:#000000; fill-opacity:1.0; 
stroke:#000000; stroke-width:0; stroke-opacity:1; 
stroke-linecap:round; stroke-linejoin:round;">
<polyline style="fill-rule:evenodd;"
points="10820,2966
10820,3478
11411,3478
11411,2966
10820,2966
" /> 
<polyline style="fill-rule:evenodd;"
points="11883,2966
11883,3478
12474,3478
12474,2966
11883,2966
" /> 
<polyline style="fill-rule:evenodd;"
points="6852,16466
6852,16978
7442,16978
7442,16466
6852,16466
" /> 
<polyline style="fill-rule:evenodd;"
points="7915,16466
7915,16978
8505,16978
8505,16466
7915,16466
" /> 
<circle cx="13647.7" cy="17222.4" r="275" /> 
</g>
<g style="fill:#000000; fill-opacity:1.0; 
stroke:#000000; stroke-width:39.3701; stroke-opacity:1; 
stroke-linecap:round; stroke-linejoin:round;">
</g>
<g style="fill:#000000; fill-opacity:1.0; 
stroke:#000000; stroke-width:0; stroke-opacity:1; 
stroke-linecap:round; stroke-linejoin:round;">
<circle cx="13647.7" cy="19222.4" r="275" /> 
</g>
<g style="fill:#000000; fill-opacity:1.0; 
stroke:#000000; stroke-width:39.3701; stroke-opacity:1; 
stroke-linecap:round; stroke-linejoin:round;">
</g>
<g style="fill:#000000; fill-opacity:1.0; 
stroke:#000000; stroke-width:0; stroke-opacity:1; 
stroke-linecap:round; stroke-linejoin:round;">
<circle cx="16647.7" cy="17222.4" r="275" /> 
</g>
<g style="fill:#000000; fill-opacity:1.0; 
stroke:#000000; stroke-width:39.3701; stroke-opacity:1; 
stroke-linecap:round; stroke-linejoin:round;">
</g>
<g style="fill:#000000; fill-opacity:1.0; 
stroke:#000000; stroke-width:0; stroke-opacity:1; 
stroke-linecap:round; stroke-linejoin:round;">
<circle cx="16647.7" cy="19222.4" r="275" /> 
</g>
<g style="fill:#000000; fill-opacity:1.0; 
stroke:#000000; stroke-width:39.3701; stroke-opacity:1; 
stroke-linecap:round; stroke-linejoin:round;">
</g>
<g style="fill:#000000; fill-opacity:1.0; 
stroke:#000000; stroke-width:0; stroke-opacity:1; 
stroke-linecap:round; stroke-linejoin:round;">
<polyline style="fill-rule:evenodd;"
points="14543,13601
14976,13601
14976,12617
14543,12617
14543,13601
" /> 
</g>
<g style="fill:#000000; fill-opacity:1.0; 
stroke:#000000; stroke-width:433.071; stroke-opacity:1; 
stroke-linecap:round; stroke-linejoin:round;">
</g>
<g style="fill:#000000; fill-opacity:0.0; 
stroke:#000000; stroke-width:433.071; stroke-opacity:1; 
stroke-linecap:round; stroke-linejoin:round;">
<path d="M13972 13385
L13972 12834
" />
<path d="M13185 13385
L13185 12834
" />
<path d="M12397 13385
L12397 12834
" />
<path d="M11610 13385
L11610 12834
" />
<path d="M10822 13385
L10822 12834
" />
<path d="M10035 13385
L10035 12834
" />
<path d="M9248 13385
L9248 12834
" />
<path d="M9248 7322
L9248 6771
" />
<path d="M10035 7361
L10035 6810
" />
<path d="M10822 7322
L10822 6771
" />
<path d="M11610 7322
L11610 6771
" />
<path d="M12397 7322
L12397 6771
" />
<path d="M13185 7322
L13185 6771
" />
<path d="M13972 7322
L13972 6771
" />
<path d="M14759 7322
L14759 6771
" />
</g>
<g style="fill:#000000; fill-opacity:0.0; 
stroke:#000000; stroke-width:0; stroke-opacity:1; 
stroke-linecap:round; stroke-linejoin:round;">
</g>
<g style="fill:#000000; fill-opacity:1.0; 
stroke:#000000; stroke-width:0; stroke-opacity:1; 
stroke-linecap:round; stroke-linejoin:round;">
<polyline style="fill-rule:evenodd;"
points="14487,2122
14487,1322
13807,1322
13807,2122
14487,2122
" /> 
</g>
<g style="fill:#000000; fill-opacity:1.0; 
stroke:#000000; stroke-width:680; stroke-opacity:1; 
stroke-linecap:round; stroke-linejoin:round;">
</g>
<g style="fill:#000000; fill-opacity:0.0; 
stroke:#000000; stroke-width:680; stroke-opacity:1; 
stroke-linecap:round; stroke-linejoin:round;">
<path d="M13147 1662
L13147 1782
" />
<path d="M12147 1662
L12147 1782
" />
<path d="M11147 1662
L11147 1782
" />
<path d="M10147 1662
L10147 1782
" />
<path d="M9147 1662
L9147 1782
" />
</g>
<g style="fill:#000000; fill-opacity:0.0; 
stroke:#000000; stroke-width:118.11; stroke-opacity:1; 
stroke-linecap:round; stroke-linejoin:round;">
<path d="M11797 17572
L13647 15722
" />
<path d="M5697 17572
L11797 17572
" />
<path d="M13647 15722
L13647 17222
" />
<path d="M14759 14610
L14759 12834
" />
<path d="M13647 15722
L14759 14610
" />
<path d="M15072 4423
L15072 5847
" />
<path d="M15372 7522
L15372 6147
" />
<path d="M15372 6147
L15072 5847
" />
<path d="M14506 8388
L15372 7522
" />
<path d="M14222 8388
L11389 11222
" />
<path d="M14222 8388
L14506 8388
" />
<path d="M15647 4222
L15273 4222
" />
<path d="M15273 4222
L15072 4423
" />
<path d="M9248 12322
L10348 11222
" />
<path d="M10348 11222
L11389 11222
" />
<path d="M9248 12834
L9248 12322
" />
<path d="M15647 5206
L16147 4706
" />
<path d="M16147 4706
L16147 3244
" />
<path d="M16147 3244
L14625 1722
" />
<path d="M14625 1722
L14147 1722
" />
<path d="M5697 2572
L5697 3572
" />
<path d="M14147 1722
L14147 1662
" />
<path d="M14147 1662
L13457 972
" />
<path d="M13457 972
L7897 972
" />
<path d="M7897 972
L7647 1222
" />
<path d="M7647 1222
L7647 1923
" />
<path d="M9647 18222
L9129 18222
" />
<path d="M9129 18222
L7242 20109
" />
<path d="M7242 20109
L5084 20109
" />
<path d="M5084 20109
L4927 19951
" />
<path d="M4927 19951
L4927 8825
" />
<path d="M4927 8825
L5179 8572
" />
<path d="M5179 8572
L5697 8572
" />
<path d="M9107 5222
L5757 8572
" />
<path d="M11610 6185
L10647 5222
" />
<path d="M10647 5222
L9107 5222
" />
<path d="M5757 8572
L5697 8572
" />
<path d="M11610 7322
L11610 6185
" />
<path d="M11297 15572
L5697 15572
" />
<path d="M13185 13685
L11297 15572
" />
<path d="M13185 12834
L13185 13685
" />
<path d="M11310 15059
L6702 15059
" />
<path d="M12397 13972
L11310 15059
" />
<path d="M12397 12834
L12397 13972
" />
<path d="M6215 14572
L5697 14572
" />
<path d="M6702 15059
L6215 14572
" />
<path d="M5757 13572
L5697 13572
" />
<path d="M11610 13538
L10345 14803
" />
<path d="M11610 13259
L11610 13538
" />
<path d="M6988 14803
L5757 13572
" />
<path d="M10345 14803
L6988 14803
" />
<path d="M11610 13259
L11647 13297
" />
<path d="M11610 12834
L11610 13259
" />
<path d="M11610 12834
L11610 13259
" />
<path d="M6215 4572
L5697 4572
" />
<path d="M14759 5834
L12856 3931
" />
<path d="M14759 7322
L14759 5834
" />
<path d="M8281 3931
L7639 4572
" />
<path d="M12856 3931
L8281 3931
" />
<path d="M7639 4572
L6215 4572
" />
<path d="M12179 3222
L12179 3596
" />
<path d="M6215 5572
L5697 5572
" />
<path d="M12112 4187
L8387 4187
" />
<path d="M13972 6047
L12112 4187
" />
<path d="M8159 3423
L7647 3423
" />
<path d="M13972 7322
L13972 6047
" />
<path d="M8387 4187
L7001 5572
" />
<path d="M12100 3675
L8411 3675
" />
<path d="M7001 5572
L6215 5572
" />
<path d="M12179 3596
L12100 3675
" />
<path d="M8411 3675
L8159 3423
" />
<path d="M13185 7322
L13185 6070
" />
<path d="M13185 6070
L11557 4442
" />
<path d="M6215 6572
L5697 6572
" />
<path d="M11557 4442
L8493 4442
" />
<path d="M6363 6572
L6215 6572
" />
<path d="M8493 4442
L6363 6572
" />
<path d="M5757 9572
L5697 9572
" />
<path d="M10822 5897
L10436 5511
" />
<path d="M10822 7322
L10822 5897
" />
<path d="M9818 5511
L5757 9572
" />
<path d="M10436 5511
L9818 5511
" />
<path d="M10822 7322
L10822 6397
" />
<path d="M8187 8142
L5757 10572
" />
<path d="M9215 8142
L8187 8142
" />
<path d="M10035 7322
L9215 8142
" />
<path d="M11147 2797
L11116 2828
" />
<path d="M11147 1722
L11147 2797
" />
<path d="M11116 3222
L11116 2828
" />
<path d="M6385 16722
L6235 16572
" />
<path d="M7147 16722
L6385 16722
" />
<path d="M5697 16572
L6235 16572
" />
<path d="M9972 14547
L7732 14547
" />
<path d="M7732 14547
L5757 12572
" />
<path d="M5757 12572
L5697 12572
" />
<path d="M10822 13697
L9972 14547
" />
<path d="M10822 12834
L10822 13697
" />
<path d="M9647 14172
L8357 14172
" />
<path d="M8357 14172
L5757 11572
" />
<path d="M5757 11572
L5697 11572
" />
<path d="M10035 13784
L9647 14172
" />
<path d="M10035 12834
L10035 13784
" />
<path d="M10035 12834
L10035 13334
" />
<path d="M5757 7572
L5697 7572
" />
<path d="M12397 6095
L11023 4721
" />
<path d="M10298 4721
L10276 4698
" />
<path d="M12397 7322
L12397 6095
" />
<path d="M10276 4698
L8631 4698
" />
<path d="M8631 4698
L5757 7572
" />
<path d="M11023 4721
L10298 4721
" />
<path d="M8210 16722
L8624 16722
" />
<path d="M8624 16722
L9124 16222
" />
<path d="M9124 16222
L11647 16222
" />
<path d="M11647 16222
L13972 13897
" />
<path d="M13972 13897
L13972 12834
" />
</g>
<g style="fill:#000000; fill-opacity:1.0; 
stroke:#000000; stroke-width:78.7402; stroke-opacity:1; 
stroke-linecap:round; stroke-linejoin:round;">
<polyline style="fill-rule:evenodd;"
points="14673,8555
14596,8607
14506,8625
14320,8625
11556,11389
11479,11440
11389,11458
10446,11458
9484,12420
9484,12514
9526,12542
9611,12670
9641,12821
9671,12670
9757,12542
9884,12457
10035,12427
10186,12457
10313,12542
10399,12670
10429,12821
10459,12670
10544,12542
10672,12457
10822,12427
10973,12457
11101,12542
11186,12670
11216,12821
11246,12670
11331,12542
11459,12457
11610,12427
11760,12457
11888,12542
11974,12670
12003,12821
12033,12670
12119,12542
12247,12457
12397,12427
12548,12457
12676,12542
12761,12670
12791,12821
12821,12670
12906,12542
13034,12457
13185,12427
13335,12457
13463,12542
13548,12670
13578,12821
13608,12670
13694,12542
13821,12457
13972,12427
14123,12457
14250,12542
14336,12670
14362,12803
14362,12617
14375,12552
14413,12491
14473,12451
14543,12437
14976,12437
15042,12449
15102,12488
15142,12547
15157,12617
15157,13601
15144,13667
15105,13727
15046,13768
14996,13778
14996,14610
14978,14700
14926,14777
13883,15820
13883,16830
13903,16838
14030,16965
14099,17132
14099,17311
14031,17478
13904,17605
13738,17674
13558,17674
13391,17605
13264,17478
13195,17312
13195,17132
13264,16966
13391,16839
13411,16830
13411,16292
12052,17651
12260,17651
12470,17738
12631,17898
12718,18108
12718,18335
12631,18545
12588,18589
12588,18589
12676,18625
12744,18693
12780,18781
12780,19101
12720,19161
12208,19161
12208,19153
12087,19153
12087,19161
11574,19161
11514,19101
11514,18781
11551,18693
11618,18625
11706,18589
11707,18589
11664,18546
11576,18336
11576,18109
11663,17899
11754,17808
10225,17808
10228,17822
10228,18622
10215,18688
10177,18748
10117,18788
10103,18791
10198,18897
10266,19062
10224,19161
9708,19161
9708,19153
9587,19153
9587,19161
9071,19161
9028,19062
9097,18897
9190,18792
9182,18790
9121,18751
9081,18692
9067,18622
9067,18619
7670,20015
16940,20015
16940,19601
16930,19591
16904,19679
16710,19743
16506,19727
16390,19679
16364,19591
13930,19591
13904,19679
13710,19743
13506,19727
13390,19679
13364,19591
13647,19308
13930,19591
16364,19591
16647,19308
16653,19313
16738,19228
16733,19222
16561,19222
16279,19505
16190,19479
16126,19285
16136,19159
14168,19159
14152,19363
14104,19479
14016,19505
13733,19222
13561,19222
13279,19505
13190,19479
13145,19342
12780,19342
12780,19663
12744,19751
12676,19819
12588,19855
12268,19855
12208,19795
12208,19283
12087,19283
12087,19795
12027,19855
11706,19855
11618,19819
11551,19751
11514,19663
11514,19381
10266,19381
10198,19547
10031,19733
9807,19841
9708,19799
9708,19283
9587,19283
9587,19799
9488,19841
9263,19733
9097,19547
9028,19381
9071,19283
9587,19283
9708,19283
10224,19283
10266,19381
11514,19381
11514,19342
11574,19283
12087,19283
12208,19283
12720,19283
12780,19342
13145,19342
13126,19285
13142,19081
13190,18965
13279,18939
13561,19222
13733,19222
14016,18939
14104,18965
14168,19159
16136,19159
16142,19081
16190,18965
16279,18939
16561,19222
16733,19222
16738,19216
16653,19131
16647,19136
16364,18853
13930,18853
13647,19136
13364,18853
13390,18765
13585,18701
13789,18717
13904,18765
13930,18853
16364,18853
16390,18765
16585,18701
16789,18717
16904,18765
16930,18853
16940,18843
16940,17568
16904,17605
16738,17674
16558,17674
16391,17605
16264,17478
16195,17312
16195,17132
16264,16966
16391,16839
16557,16770
16737,16770
16903,16838
16940,16876
16940,15813
15798,15813
15798,13681
16940,13681
16940,13361
15347,13361
15332,13358
15319,13350
15311,13337
15308,13321
15394,7835
14673,8555
" /> 
<polyline style="fill-rule:evenodd;"
points="6134,17938
5966,18050
5855,18072
5966,18094
6134,18206
6246,18374
6286,18572
6246,18770
6134,18938
6052,18993
6145,18993
6233,19029
6300,19096
6337,19184
6337,19451
6277,19511
5758,19511
5758,19503
5637,19503
5637,19511
5629,19511
5629,19633
5637,19633
5637,19640
5758,19640
5758,19633
6277,19633
6337,19692
6337,19873
7144,19873
8962,18055
9039,18004
9067,17998
9067,17822
9069,17808
6221,17808
6134,17938
" /> 
<polyline style="fill-rule:evenodd;"
points="4854,8563
5012,8405
5089,8354
5173,8337
5260,8206
5428,8094
5540,8072
5428,8050
5260,7938
5148,7770
5109,7572
5148,7374
5260,7206
5428,7094
5540,7072
5428,7050
5260,6938
5148,6770
5109,6572
5148,6374
5260,6206
5428,6094
5540,6072
5428,6050
5260,5938
5148,5770
5109,5572
5148,5374
5260,5206
5428,5094
5540,5072
5428,5050
5260,4938
5148,4770
5109,4572
5148,4374
5260,4206
5422,4098
5334,4066
5168,3912
5078,3722
5121,3633
5637,3633
5637,3640
5758,3640
5758,3633
6273,3633
6317,3722
6226,3912
6060,4066
5972,4098
6134,4206
6221,4336
7541,4336
7880,3997
7254,3997
7188,3985
7128,3946
7087,3887
7073,3816
7073,3029
7085,2964
7124,2903
7183,2863
7254,2849
8041,2849
8106,2861
8167,2900
8207,2959
8221,3029
8221,3199
8249,3204
8326,3256
8509,3438
10640,3438
10640,2966
10652,2900
10691,2840
10750,2800
10820,2785
10888,2785
10897,2738
10908,2722
6317,2722
6226,2912
6060,3066
6043,3072
6060,3078
6226,3232
6317,3422
6273,3511
5758,3511
5758,2633
5637,2633
5637,3511
5121,3511
5078,3422
5168,3232
5334,3078
5351,3072
5334,3066
5168,2912
5078,2722
5121,2633
5637,2633
5758,2633
6273,2633
6317,2722
10908,2722
10911,2717
10911,2377
8016,2377
7976,2478
7738,2562
7487,2548
7319,2478
7296,2422
6317,2422
6273,2511
5758,2511
5758,2503
5637,2503
5637,2511
5121,2511
5078,2422
5168,2232
5334,2078
5422,2046
5260,1938
5148,1770
5109,1572
5148,1374
5260,1206
5428,1094
5626,1055
5768,1055
5966,1094
6134,1206
6246,1374
6286,1572
6246,1770
6134,1938
5972,2046
6060,2078
6226,2232
6317,2422
7296,2422
7278,2377
7647,2008
8016,2377
10911,2377
10911,2245
10781,2159
10669,1991
10647,1880
10625,1991
10513,2159
10345,2271
10147,2310
9949,2271
9781,2159
9669,1991
9647,1880
9625,1991
9513,2159
9345,2271
9147,2310
8949,2271
8781,2159
8669,1991
8638,1832
8286,1832
8272,2083
8203,2251
8102,2292
7733,1923
7561,1923
7193,2292
7092,2251
7008,2014
7022,1762
7092,1594
7193,1554
7561,1923
7733,1923
8102,1554
8203,1594
8286,1832
8638,1832
8630,1793
8630,1651
8666,1468
8016,1468
7647,1837
7278,1468
7319,1367
7556,1284
7808,1298
7976,1367
8016,1468
8666,1468
8669,1453
8781,1285
8949,1173
9147,1133
9345,1173
9513,1285
9625,1453
9647,1564
9669,1453
9781,1285
9949,1173
10147,1133
10345,1173
10513,1285
10625,1453
10647,1564
10669,1453
10781,1285
10949,1173
11147,1133
11345,1173
11513,1285
11625,1453
11647,1564
11669,1453
11781,1285
11949,1173
12147,1133
12345,1173
12513,1285
12625,1453
12647,1564
12669,1453
12781,1285
12949,1173
13147,1133
13345,1173
13513,1285
13568,1367
13568,1274
13604,1186
13672,1119
13760,1083
14027,1083
14087,1142
14087,1661
14079,1661
14079,1783
14087,1783
14087,2301
14027,2361
13760,2361
13672,2325
13604,2258
13568,2170
13568,2077
13513,2159
13345,2271
13147,2310
12949,2271
12781,2159
12669,1991
12647,1880
12625,1991
12513,2159
12345,2271
12147,2310
11949,2271
11781,2159
11669,1991
11647,1880
11625,1991
11513,2159
11383,2245
11383,2785
11411,2785
11477,2798
11537,2837
11577,2896
11592,2966
11592,3438
11703,3438
11703,2966
11715,2900
11754,2840
11813,2800
11883,2785
12474,2785
12540,2798
12600,2837
12640,2896
12655,2966
12655,3478
12642,3544
12603,3604
12544,3644
12474,3658
12402,3658
12397,3686
12392,3694
12856,3694
12946,3712
13023,3764
14836,5577
14836,4423
14854,4333
14905,4256
15106,4055
15183,4004
15211,3998
15211,3966
15223,3900
15262,3840
15321,3800
15391,3785
15903,3785
15969,3798
16029,3837
16069,3896
16084,3966
16084,4478
16071,4544
16033,4604
15973,4644
15903,4658
15391,4658
15326,4646
15308,4635
15308,4832
15334,4807
15378,4851
15402,4765
15589,4705
15785,4721
15893,4765
15916,4851
15647,5120
15642,5115
15556,5201
15561,5206
15556,5212
15642,5298
15647,5292
15916,5561
15893,5647
15705,5708
15509,5692
15402,5647
15378,5561
15334,5606
15308,5580
15308,5749
15539,5980
15590,6057
15608,6147
15608,6883
16940,6883
16940,5148
16149,5148
16133,5345
16088,5452
16002,5475
15733,5206
16002,4937
16088,4961
16149,5148
16940,5148
16940,1842
14727,1842
14727,2170
14690,2258
14623,2325
14535,2361
14268,2361
14208,2301
14208,1783
14667,1783
14727,1842
16940,1842
16940,1274
14727,1274
14727,1601
14667,1661
14208,1661
14208,1142
14268,1083
14535,1083
14623,1119
14690,1186
14727,1274
16940,1274
16940,929
4854,929
4854,8563
" /> 
</g>
<g style="fill:#FFFFFF; fill-opacity:1.0; 
stroke:#FFFFFF; stroke-width:78.7402; stroke-opacity:1; 
stroke-linecap:round; stroke-linejoin:round;">
</g>
<g style="fill:#FFFFFF; fill-opacity:1.0; 
stroke:#FFFFFF; stroke-width:0; stroke-opacity:1; 
stroke-linecap:round; stroke-linejoin:round;">
<circle cx="15647.7" cy="4222.44" r="157.48" /> 
</g>
<g style="fill:#FFFFFF; fill-opacity:1.0; 
stroke:#FFFFFF; stroke-width:39.3701; stroke-opacity:1; 
stroke-linecap:round; stroke-linejoin:round;">
</g>
<g style="fill:#FFFFFF; fill-opacity:1.0; 
stroke:#FFFFFF; stroke-width:0; stroke-opacity:1; 
stroke-linecap:round; stroke-linejoin:round;">
<circle cx="15647.7" cy="5206.69" r="157.48" /> 
</g>
<g style="fill:#FFFFFF; fill-opacity:1.0; 
stroke:#FFFFFF; stroke-width:39.3701; stroke-opacity:1; 
stroke-linecap:round; stroke-linejoin:round;">
</g>
<g style="fill:#FFFFFF; fill-opacity:1.0; 
stroke:#FFFFFF; stroke-width:0; stroke-opacity:1; 
stroke-linecap:round; stroke-linejoin:round;">
<circle cx="7647.68" cy="1923.23" r="250" /> 
</g>
<g style="fill:#FFFFFF; fill-opacity:1.0; 
stroke:#FFFFFF; stroke-width:39.3701; stroke-opacity:1; 
stroke-linecap:round; stroke-linejoin:round;">
</g>
<g style="fill:#FFFFFF; fill-opacity:1.0; 
stroke:#FFFFFF; stroke-width:0; stroke-opacity:1; 
stroke-linecap:round; stroke-linejoin:round;">
<circle cx="7647.68" cy="3423.23" r="197" /> 
</g>
<g style="fill:#FFFFFF; fill-opacity:1.0; 
stroke:#FFFFFF; stroke-width:39.3701; stroke-opacity:1; 
stroke-linecap:round; stroke-linejoin:round;">
</g>
<g style="fill:#FFFFFF; fill-opacity:1.0; 
stroke:#FFFFFF; stroke-width:0; stroke-opacity:1; 
stroke-linecap:round; stroke-linejoin:round;">
<circle cx="12147.7" cy="19222.4" r="197" /> 
</g>
<g style="fill:#FFFFFF; fill-opacity:1.0; 
stroke:#FFFFFF; stroke-width:39.3701; stroke-opacity:1; 
stroke-linecap:round; stroke-linejoin:round;">
</g>
<g style="fill:#FFFFFF; fill-opacity:1.0; 
stroke:#FFFFFF; stroke-width:0; stroke-opacity:1; 
stroke-linecap:round; stroke-linejoin:round;">
<circle cx="12147.7" cy="18222.4" r="197" /> 
</g>
<g style="fill:#FFFFFF; fill-opacity:1.0; 
stroke:#FFFFFF; stroke-width:39.3701; stroke-opacity:1; 
stroke-linecap:round; stroke-linejoin:round;">
</g>
<g style="fill:#FFFFFF; fill-opacity:1.0; 
stroke:#FFFFFF; stroke-width:0; stroke-opacity:1; 
stroke-linecap:round; stroke-linejoin:round;">
<circle cx="5697.68" cy="19572.4" r="200" /> 
</g>
<g style="fill:#FFFFFF; fill-opacity:1.0; 
stroke:#FFFFFF; stroke-width:39.3701; stroke-opacity:1; 
stroke-linecap:round; stroke-linejoin:round;">
</g>
<g style="fill:#FFFFFF; fill-opacity:1.0; 
stroke:#FFFFFF; stroke-width:0; stroke-opacity:1; 
stroke-linecap:round; stroke-linejoin:round;">
<circle cx="5697.68" cy="18572.4" r="200" /> 
</g>
<g style="fill:#FFFFFF; fill-opacity:1.0; 
stroke:#FFFFFF; stroke-width:39.3701; stroke-opacity:1; 
stroke-linecap:round; stroke-linejoin:round;">
</g>
<g style="fill:#FFFFFF; fill-opacity:1.0; 
stroke:#FFFFFF; stroke-width:0; stroke-opacity:1; 
stroke-linecap:round; stroke-linejoin:round;">
<circle cx="5697.68" cy="17572.4" r="200" /> 
</g>
<g style="fill:#FFFFFF; fill-opacity:1.0; 
stroke:#FFFFFF; stroke-width:39.3701; stroke-opacity:1; 
stroke-linecap:round; stroke-linejoin:round;">
</g>
<g style="fill:#FFFFFF; fill-opacity:1.0; 
stroke:#FFFFFF; stroke-width:0; stroke-opacity:1; 
stroke-linecap:round; stroke-linejoin:round;">
<circle cx="5697.68" cy="16572.4" r="200" /> 
</g>
<g style="fill:#FFFFFF; fill-opacity:1.0; 
stroke:#FFFFFF; stroke-width:39.3701; stroke-opacity:1; 
stroke-linecap:round; stroke-linejoin:round;">
</g>
<g style="fill:#FFFFFF; fill-opacity:1.0; 
stroke:#FFFFFF; stroke-width:0; stroke-opacity:1; 
stroke-linecap:round; stroke-linejoin:round;">
<circle cx="5697.68" cy="15572.4" r="200" /> 
</g>
<g style="fill:#FFFFFF; fill-opacity:1.0; 
stroke:#FFFFFF; stroke-width:39.3701; stroke-opacity:1; 
stroke-linecap:round; stroke-linejoin:round;">
</g>
<g style="fill:#FFFFFF; fill-opacity:1.0; 
stroke:#FFFFFF; stroke-width:0; stroke-opacity:1; 
stroke-linecap:round; stroke-linejoin:round;">
<circle cx="5697.68" cy="14572.4" r="200" /> 
</g>
<g style="fill:#FFFFFF; fill-opacity:1.0; 
stroke:#FFFFFF; stroke-width:39.3701; stroke-opacity:1; 
stroke-linecap:round; stroke-linejoin:round;">
</g>
<g style="fill:#FFFFFF; fill-opacity:1.0; 
stroke:#FFFFFF; stroke-width:0; stroke-opacity:1; 
stroke-linecap:round; stroke-linejoin:round;">
<circle cx="5697.68" cy="13572.4" r="200" /> 
</g>
<g style="fill:#FFFFFF; fill-opacity:1.0; 
stroke:#FFFFFF; stroke-width:39.3701; stroke-opacity:1; 
stroke-linecap:round; stroke-linejoin:round;">
</g>
<g style="fill:#FFFFFF; fill-opacity:1.0; 
stroke:#FFFFFF; stroke-width:0; stroke-opacity:1; 
stroke-linecap:round; stroke-linejoin:round;">
<circle cx="5697.68" cy="12572.4" r="200" /> 
</g>
<g style="fill:#FFFFFF; fill-opacity:1.0; 
stroke:#FFFFFF; stroke-width:39.3701; stroke-opacity:1; 
stroke-linecap:round; stroke-linejoin:round;">
</g>
<g style="fill:#FFFFFF; fill-opacity:1.0; 
stroke:#FFFFFF; stroke-width:0; stroke-opacity:1; 
stroke-linecap:round; stroke-linejoin:round;">
<circle cx="5697.68" cy="11572.4" r="200" /> 
</g>
<g style="fill:#FFFFFF; fill-opacity:1.0; 
stroke:#FFFFFF; stroke-width:39.3701; stroke-opacity:1; 
stroke-linecap:round; stroke-linejoin:round;">
</g>
<g style="fill:#FFFFFF; fill-opacity:1.0; 
stroke:#FFFFFF; stroke-width:0; stroke-opacity:1; 
stroke-linecap:round; stroke-linejoin:round;">
<circle cx="5697.68" cy="10572.4" r="200" /> 
</g>
<g style="fill:#FFFFFF; fill-opacity:1.0; 
stroke:#FFFFFF; stroke-width:39.3701; stroke-opacity:1; 
stroke-linecap:round; stroke-linejoin:round;">
</g>
<g style="fill:#FFFFFF; fill-opacity:1.0; 
stroke:#FFFFFF; stroke-width:0; stroke-opacity:1; 
stroke-linecap:round; stroke-linejoin:round;">
<circle cx="5697.68" cy="9572.44" r="200" /> 
</g>
<g style="fill:#FFFFFF; fill-opacity:1.0; 
stroke:#FFFFFF; stroke-width:39.3701; stroke-opacity:1; 
stroke-linecap:round; stroke-linejoin:round;">
</g>
<g style="fill:#FFFFFF; fill-opacity:1.0; 
stroke:#FFFFFF; stroke-width:0; stroke-opacity:1; 
stroke-linecap:round; stroke-linejoin:round;">
<circle cx="5697.68" cy="8572.44" r="200" /> 
</g>
<g style="fill:#FFFFFF; fill-opacity:1.0; 
stroke:#FFFFFF; stroke-width:39.3701; stroke-opacity:1; 
stroke-linecap:round; stroke-linejoin:round;">
</g>
<g style="fill:#FFFFFF; fill-opacity:1.0; 
stroke:#FFFFFF; stroke-width:0; stroke-opacity:1; 
stroke-linecap:round; stroke-linejoin:round;">
<circle cx="5697.68" cy="7572.44" r="200" /> 
</g>
<g style="fill:#FFFFFF; fill-opacity:1.0; 
stroke:#FFFFFF; stroke-width:39.3701; stroke-opacity:1; 
stroke-linecap:round; stroke-linejoin:round;">
</g>
<g style="fill:#FFFFFF; fill-opacity:1.0; 
stroke:#FFFFFF; stroke-width:0; stroke-opacity:1; 
stroke-linecap:round; stroke-linejoin:round;">
<circle cx="5697.68" cy="6572.44" r="200" /> 
</g>
<g style="fill:#FFFFFF; fill-opacity:1.0; 
stroke:#FFFFFF; stroke-width:39.3701; stroke-opacity:1; 
stroke-linecap:round; stroke-linejoin:round;">
</g>
<g style="fill:#FFFFFF; fill-opacity:1.0; 
stroke:#FFFFFF; stroke-width:0; stroke-opacity:1; 
stroke-linecap:round; stroke-linejoin:round;">
<circle cx="5697.68" cy="5572.44" r="200" /> 
</g>
<g style="fill:#FFFFFF; fill-opacity:1.0; 
stroke:#FFFFFF; stroke-width:39.3701; stroke-opacity:1; 
stroke-linecap:round; stroke-linejoin:round;">
</g>
<g style="fill:#FFFFFF; fill-opacity:1.0; 
stroke:#FFFFFF; stroke-width:0; stroke-opacity:1; 
stroke-linecap:round; stroke-linejoin:round;">
<circle cx="5697.68" cy="4572.44" r="200" /> 
</g>
<g style="fill:#FFFFFF; fill-opacity:1.0; 
stroke:#FFFFFF; stroke-width:39.3701; stroke-opacity:1; 
stroke-linecap:round; stroke-linejoin:round;">
</g>
<g style="fill:#FFFFFF; fill-opacity:1.0; 
stroke:#FFFFFF; stroke-width:0; stroke-opacity:1; 
stroke-linecap:round; stroke-linejoin:round;">
<circle cx="5697.68" cy="3572.44" r="200" /> 
</g>
<g style="fill:#FFFFFF; fill-opacity:1.0; 
stroke:#FFFFFF; stroke-width:39.3701; stroke-opacity:1; 
stroke-linecap:round; stroke-linejoin:round;">
</g>
<g style="fill:#FFFFFF; fill-opacity:1.0; 
stroke:#FFFFFF; stroke-width:0; stroke-opacity:1; 
stroke-linecap:round; stroke-linejoin:round;">
<circle cx="5697.68" cy="2572.44" r="200" /> 
</g>
<g style="fill:#FFFFFF; fill-opacity:1.0; 
stroke:#FFFFFF; stroke-width:39.3701; stroke-opacity:1; 
stroke-linecap:round; stroke-linejoin:round;">
</g>
<g style="fill:#FFFFFF; fill-opacity:1.0; 
stroke:#FFFFFF; stroke-width:0; stroke-opacity:1; 
stroke-linecap:round; stroke-linejoin:round;">
<circle cx="5697.68" cy="1572.44" r="200" /> 
</g>
<g style="fill:#FFFFFF; fill-opacity:1.0; 
stroke:#FFFFFF; stroke-width:39.3701; stroke-opacity:1; 
stroke-linecap:round; stroke-linejoin:round;">
</g>
<g style="fill:#FFFFFF; fill-opacity:1.0; 
stroke:#FFFFFF; stroke-width:0; stroke-opacity:1; 
stroke-linecap:round; stroke-linejoin:round;">
<circle cx="9647.68" cy="18222.4" r="200" /> 
</g>
<g style="fill:#FFFFFF; fill-opacity:1.0; 
stroke:#FFFFFF; stroke-width:39.3701; stroke-opacity:1; 
stroke-linecap:round; stroke-linejoin:round;">
</g>
<g style="fill:#FFFFFF; fill-opacity:1.0; 
stroke:#FFFFFF; stroke-width:0; stroke-opacity:1; 
stroke-linecap:round; stroke-linejoin:round;">
<circle cx="9647.68" cy="19222.4" r="200" /> 
</g>
<g style="fill:#FFFFFF; fill-opacity:1.0; 
stroke:#FFFFFF; stroke-width:39.3701; stroke-opacity:1; 
stroke-linecap:round; stroke-linejoin:round;">
</g>
<g style="fill:#FFFFFF; fill-opacity:1.0; 
stroke:#FFFFFF; stroke-width:0; stroke-opacity:1; 
stroke-linecap:round; stroke-linejoin:round;">
<circle cx="13647.7" cy="17222.4" r="160" /> 
</g>
<g style="fill:#FFFFFF; fill-opacity:1.0; 
stroke:#FFFFFF; stroke-width:39.3701; stroke-opacity:1; 
stroke-linecap:round; stroke-linejoin:round;">
</g>
<g style="fill:#FFFFFF; fill-opacity:1.0; 
stroke:#FFFFFF; stroke-width:0; stroke-opacity:1; 
stroke-linecap:round; stroke-linejoin:round;">
<circle cx="13647.7" cy="19222.4" r="160" /> 
</g>
<g style="fill:#FFFFFF; fill-opacity:1.0; 
stroke:#FFFFFF; stroke-width:39.3701; stroke-opacity:1; 
stroke-linecap:round; stroke-linejoin:round;">
</g>
<g style="fill:#FFFFFF; fill-opacity:1.0; 
stroke:#FFFFFF; stroke-width:0; stroke-opacity:1; 
stroke-linecap:round; stroke-linejoin:round;">
<circle cx="16647.7" cy="17222.4" r="160" /> 
</g>
<g style="fill:#FFFFFF; fill-opacity:1.0; 
stroke:#FFFFFF; stroke-width:39.3701; stroke-opacity:1; 
stroke-linecap:round; stroke-linejoin:round;">
</g>
<g style="fill:#FFFFFF; fill-opacity:1.0; 
stroke:#FFFFFF; stroke-width:0; stroke-opacity:1; 
stroke-linecap:round; stroke-linejoin:round;">
<circle cx="16647.7" cy="19222.4" r="160" /> 
</g>
<g style="fill:#FFFFFF; fill-opacity:1.0; 
stroke:#FFFFFF; stroke-width:39.3701; stroke-opacity:1; 
stroke-linecap:round; stroke-linejoin:round;">
</g>
<g style="fill:#FFFFFF; fill-opacity:1.0; 
stroke:#FFFFFF; stroke-width:0; stroke-opacity:1; 
stroke-linecap:round; stroke-linejoin:round;">
<circle cx="14759.9" cy="12834.3" r="127.953" /> 
</g>
<g style="fill:#FFFFFF; fill-opacity:1.0; 
stroke:#FFFFFF; stroke-width:39.3701; stroke-opacity:1; 
stroke-linecap:round; stroke-linejoin:round;">
</g>
<g style="fill:#FFFFFF; fill-opacity:1.0; 
stroke:#FFFFFF; stroke-width:0; stroke-opacity:1; 
stroke-linecap:round; stroke-linejoin:round;">
<circle cx="13972.5" cy="12834.3" r="127.953" /> 
</g>
<g style="fill:#FFFFFF; fill-opacity:1.0; 
stroke:#FFFFFF; stroke-width:39.3701; stroke-opacity:1; 
stroke-linecap:round; stroke-linejoin:round;">
</g>
<g style="fill:#FFFFFF; fill-opacity:1.0; 
stroke:#FFFFFF; stroke-width:0; stroke-opacity:1; 
stroke-linecap:round; stroke-linejoin:round;">
<circle cx="13185.1" cy="12834.3" r="127.953" /> 
</g>
<g style="fill:#FFFFFF; fill-opacity:1.0; 
stroke:#FFFFFF; stroke-width:39.3701; stroke-opacity:1; 
stroke-linecap:round; stroke-linejoin:round;">
</g>
<g style="fill:#FFFFFF; fill-opacity:1.0; 
stroke:#FFFFFF; stroke-width:0; stroke-opacity:1; 
stroke-linecap:round; stroke-linejoin:round;">
<circle cx="12397.7" cy="12834.3" r="127.953" /> 
</g>
<g style="fill:#FFFFFF; fill-opacity:1.0; 
stroke:#FFFFFF; stroke-width:39.3701; stroke-opacity:1; 
stroke-linecap:round; stroke-linejoin:round;">
</g>
<g style="fill:#FFFFFF; fill-opacity:1.0; 
stroke:#FFFFFF; stroke-width:0; stroke-opacity:1; 
stroke-linecap:round; stroke-linejoin:round;">
<circle cx="11610.3" cy="12834.3" r="127.953" /> 
</g>
<g style="fill:#FFFFFF; fill-opacity:1.0; 
stroke:#FFFFFF; stroke-width:39.3701; stroke-opacity:1; 
stroke-linecap:round; stroke-linejoin:round;">
</g>
<g style="fill:#FFFFFF; fill-opacity:1.0; 
stroke:#FFFFFF; stroke-width:0; stroke-opacity:1; 
stroke-linecap:round; stroke-linejoin:round;">
<circle cx="10822.9" cy="12834.3" r="127.953" /> 
</g>
<g style="fill:#FFFFFF; fill-opacity:1.0; 
stroke:#FFFFFF; stroke-width:39.3701; stroke-opacity:1; 
stroke-linecap:round; stroke-linejoin:round;">
</g>
<g style="fill:#FFFFFF; fill-opacity:1.0; 
stroke:#FFFFFF; stroke-width:0; stroke-opacity:1; 
stroke-linecap:round; stroke-linejoin:round;">
<circle cx="10035.5" cy="12834.3" r="127.953" /> 
</g>
<g style="fill:#FFFFFF; fill-opacity:1.0; 
stroke:#FFFFFF; stroke-width:39.3701; stroke-opacity:1; 
stroke-linecap:round; stroke-linejoin:round;">
</g>
<g style="fill:#FFFFFF; fill-opacity:1.0; 
stroke:#FFFFFF; stroke-width:0; stroke-opacity:1; 
stroke-linecap:round; stroke-linejoin:round;">
<circle cx="9248.07" cy="12834.3" r="127.953" /> 
</g>
<g style="fill:#FFFFFF; fill-opacity:1.0; 
stroke:#FFFFFF; stroke-width:39.3701; stroke-opacity:1; 
stroke-linecap:round; stroke-linejoin:round;">
</g>
<g style="fill:#FFFFFF; fill-opacity:1.0; 
stroke:#FFFFFF; stroke-width:0; stroke-opacity:1; 
stroke-linecap:round; stroke-linejoin:round;">
<circle cx="9248.07" cy="7322.44" r="127.953" /> 
</g>
<g style="fill:#FFFFFF; fill-opacity:1.0; 
stroke:#FFFFFF; stroke-width:39.3701; stroke-opacity:1; 
stroke-linecap:round; stroke-linejoin:round;">
</g>
<g style="fill:#FFFFFF; fill-opacity:1.0; 
stroke:#FFFFFF; stroke-width:0; stroke-opacity:1; 
stroke-linecap:round; stroke-linejoin:round;">
<circle cx="10035.5" cy="7322.44" r="127.953" /> 
</g>
<g style="fill:#FFFFFF; fill-opacity:1.0; 
stroke:#FFFFFF; stroke-width:39.3701; stroke-opacity:1; 
stroke-linecap:round; stroke-linejoin:round;">
</g>
<g style="fill:#FFFFFF; fill-opacity:1.0; 
stroke:#FFFFFF; stroke-width:0; stroke-opacity:1; 
stroke-linecap:round; stroke-linejoin:round;">
<circle cx="10822.9" cy="7322.44" r="127.953" /> 
</g>
<g style="fill:#FFFFFF; fill-opacity:1.0; 
stroke:#FFFFFF; stroke-width:39.3701; stroke-opacity:1; 
stroke-linecap:round; stroke-linejoin:round;">
</g>
<g style="fill:#FFFFFF; fill-opacity:1.0; 
stroke:#FFFFFF; stroke-width:0; stroke-opacity:1; 
stroke-linecap:round; stroke-linejoin:round;">
<circle cx="11610.3" cy="7322.44" r="127.953" /> 
</g>
<g style="fill:#FFFFFF; fill-opacity:1.0; 
stroke:#FFFFFF; stroke-width:39.3701; stroke-opacity:1; 
stroke-linecap:round; stroke-linejoin:round;">
</g>
<g style="fill:#FFFFFF; fill-opacity:1.0; 
stroke:#FFFFFF; stroke-width:0; stroke-opacity:1; 
stroke-linecap:round; stroke-linejoin:round;">
<circle cx="12397.7" cy="7322.44" r="127.953" /> 
</g>
<g style="fill:#FFFFFF; fill-opacity:1.0; 
stroke:#FFFFFF; stroke-width:39.3701; stroke-opacity:1; 
stroke-linecap:round; stroke-linejoin:round;">
</g>
<g style="fill:#FFFFFF; fill-opacity:1.0; 
stroke:#FFFFFF; stroke-width:0; stroke-opacity:1; 
stroke-linecap:round; stroke-linejoin:round;">
<circle cx="13185.1" cy="7322.44" r="127.953" /> 
</g>
<g style="fill:#FFFFFF; fill-opacity:1.0; 
stroke:#FFFFFF; stroke-width:39.3701; stroke-opacity:1; 
stroke-linecap:round; stroke-linejoin:round;">
</g>
<g style="fill:#FFFFFF; fill-opacity:1.0; 
stroke:#FFFFFF; stroke-width:0; stroke-opacity:1; 
stroke-linecap:round; stroke-linejoin:round;">
<circle cx="13972.5" cy="7322.44" r="127.953" /> 
</g>
<g style="fill:#FFFFFF; fill-opacity:1.0; 
stroke:#FFFFFF; stroke-width:39.3701; stroke-opacity:1; 
stroke-linecap:round; stroke-linejoin:round;">
</g>
<g style="fill:#FFFFFF; fill-opacity:1.0; 
stroke:#FFFFFF; stroke-width:0; stroke-opacity:1; 
stroke-linecap:round; stroke-linejoin:round;">
<circle cx="14759.9" cy="7322.44" r="127.953" /> 
</g>
<g style="fill:#FFFFFF; fill-opacity:1.0; 
stroke:#FFFFFF; stroke-width:39.3701; stroke-opacity:1; 
stroke-linecap:round; stroke-linejoin:round;">
</g>
<g style="fill:#FFFFFF; fill-opacity:1.0; 
stroke:#FFFFFF; stroke-width:0; stroke-opacity:1; 
stroke-linecap:round; stroke-linejoin:round;">
<circle cx="14147.7" cy="1722.44" r="200" /> 
</g>
<g style="fill:#FFFFFF; fill-opacity:1.0; 
stroke:#FFFFFF; stroke-width:39.3701; stroke-opacity:1; 
stroke-linecap:round; stroke-linejoin:round;">
</g>
<g style="fill:#FFFFFF; fill-opacity:1.0; 
stroke:#FFFFFF; stroke-width:0; stroke-opacity:1; 
stroke-linecap:round; stroke-linejoin:round;">
<circle cx="13147.7" cy="1722.44" r="200" /> 
</g>
<g style="fill:#FFFFFF; fill-opacity:1.0; 
stroke:#FFFFFF; stroke-width:39.3701; stroke-opacity:1; 
stroke-linecap:round; stroke-linejoin:round;">
</g>
<g style="fill:#FFFFFF; fill-opacity:1.0; 
stroke:#FFFFFF; stroke-width:0; stroke-opacity:1; 
stroke-linecap:round; stroke-linejoin:round;">
<circle cx="12147.7" cy="1722.44" r="200" /> 
</g>
<g style="fill:#FFFFFF; fill-opacity:1.0; 
stroke:#FFFFFF; stroke-width:39.3701; stroke-opacity:1; 
stroke-linecap:round; stroke-linejoin:round;">
</g>
<g style="fill:#FFFFFF; fill-opacity:1.0; 
stroke:#FFFFFF; stroke-width:0; stroke-opacity:1; 
stroke-linecap:round; stroke-linejoin:round;">
<circle cx="11147.7" cy="1722.44" r="200" /> 
</g>
<g style="fill:#FFFFFF; fill-opacity:1.0; 
stroke:#FFFFFF; stroke-width:39.3701; stroke-opacity:1; 
stroke-linecap:round; stroke-linejoin:round;">
</g>
<g style="fill:#FFFFFF; fill-opacity:1.0; 
stroke:#FFFFFF; stroke-width:0; stroke-opacity:1; 
stroke-linecap:round; stroke-linejoin:round;">
<circle cx="10147.7" cy="1722.44" r="200" /> 
</g>
<g style="fill:#FFFFFF; fill-opacity:1.0; 
stroke:#FFFFFF; stroke-width:39.3701; stroke-opacity:1; 
stroke-linecap:round; stroke-linejoin:round;">
</g>
<g style="fill:#FFFFFF; fill-opacity:1.0; 
stroke:#FFFFFF; stroke-width:0; stroke-opacity:1; 
stroke-linecap:round; stroke-linejoin:round;">
<circle cx="9147.68" cy="1722.44" r="200" /> 
</g>
<g style="fill:#FFFFFF; fill-opacity:1.0; 
stroke:#FFFFFF; stroke-width:39.3701; stroke-opacity:1; 
stroke-linecap:round; stroke-linejoin:round;">
</g>
<g style="fill:#000000; fill-opacity:1.0; 
stroke:#000000; stroke-width:39.3701; stroke-opacity:1; 
stroke-linecap:round; stroke-linejoin:round;">
</g>
<g style="fill:#000000; fill-opacity:1.0; 
stroke:#000000; stroke-width:59.0551; stroke-opacity:1; 
stroke-linecap:round; stroke-linejoin:round;">
</g>
<g style="fill:#000000; fill-opacity:0.0; 
stroke:#000000; stroke-width:59.0551; stroke-opacity:1; 
stroke-linecap:round; stroke-linejoin:round;">
<path d="M17147 722
L4647 722
" />
<path d="M17147 10222
L17147 722
" />
<path d="M17147 20222
L17147 10222
" />
<path d="M4647 20222
L17147 20222
" />
<path d="M4647 722
L4647 20222
" />
</g> 
</svg>
